/* XPM */
static char *_82ba278d53e498dcc7af1becb56ea66WRX3ZCIxxNQ4szHq[] = {
/* columns rows colors chars-per-pixel */
"72 72 42 1 ",
"  c #1A1A17",
". c #36A071",
"X c #8ED98A",
"o c #BEF9BB",
"O c #D8C999",
"+ c #D9CB99",
"@ c #D9CA9A",
"# c #DBCB9B",
"$ c #D9CD9A",
"% c #DACC9A",
"& c #DBCD9B",
"* c #DBCE9B",
"= c #DCCC9A",
"- c #DDCD9B",
"; c #DDCF9B",
": c #DECE9B",
"> c #DCCC9C",
", c #DDCD9D",
"< c #DCCE9C",
"1 c #DDCF9D",
"2 c #DECE9C",
"3 c #DFCF9C",
"4 c #DED09C",
"5 c #DFD29C",
"6 c #E1D19C",
"7 c #E0D09D",
"8 c #E1D29C",
"9 c #E2D29D",
"0 c #E3D29D",
"q c #E2D39D",
"w c #E4D19C",
"e c #E5D29C",
"r c #E4D39C",
"t c #E5D29D",
"y c #E6D39D",
"u c #E4D39E",
"i c #E3D49D",
"p c #E5D49C",
"a c #E5D49D",
"s c #E6D59D",
"d c #E6D69D",
"f c #E6D69E",
/* pixels */
"4;;<<>7#;<<<;<06y000;<44<<<<4444<;%44<<%<>7>>;44;<44444aii0<7;4744;;#;#<",
"4444<<>>;744>;4;;00a60ia4744;04444444<<4<7<<>;;0#%44444<<4d<<0a000;<><<;",
"4444<<><<;<4>;447yyy66ia:744<<0<4;44<<<47<7>>;;<#%44444<0:a044fay<<%><<:",
"<<<<>><;#70;>;44<<;746;0><#<;<;;40004444<><<;77;<#44444<;#y<4404<<<;#;#:",
"<>><<<#<0444<;#:<;;-440:##%;;;<<4<0f04447><<4444<<44444<<<44444<<<707<:;",
">><<<<;;;444<#:#<;;;4<;7%%%;;;<<404a4444<<<74444<<44444<<<44444<<<;<:;0;",
">;;4<4000<;<7<<<;>>;4;#<%%%;;;<<400a044<0<y;<;44<<<<;<0<44<<<<4<>#;;7ya4",
";7700000070;;;;:<<<#;;;>%#;<4;;;4;<i;;;;;40;4<00a0<;;;;;<4>>><<#>#;;0yap",
"<04a00000;444;;;4<<<;##>#>%4;;4447:a44444;044:y0i0;;;;4<4<<##><>#<;;0yap",
"<aafaai40<44;#0<4444;7;<<44444444444<4%44444<0aaay44<>;<<<O#<><<;7<<;yaa",
"7yaf400<;444##66yaay06;4447ya044444   %#><4%>#<;yw0<yyy;<<<#>><###;;<66p",
"<aaf44<4<444<;66yaay664444;ai044444   %#><4<;;70ww<<0wy7<<##>#0###;;066p",
"0y6a4<0444;;<;7:yyya0y0<0400y04%444   <###0%<444ip;7yy04<<#<<<4<#<;;0<<y",
"<76644;#%%%%<<;;<y0aaa6;y0a47>%%         ;<<444<46pw7<><<%;4<4<<<<<4;<0>",
"<>;#444<<##O;;;;;;;iyy0;dda<<>$%         >>;;;<;44004;;;4;;4440;4;;;;;;;",
"4>##444<%###;;;;;0<0y0y;yda7<#$%         #><;;<044004;;;;;;444444;;;;;;;",
"4%##;;;;;#%%<<44<;<7wy0#yyy<<   oooXXX...   #;<<4444<0;4;;444444;4<<<><;",
"<<;:;#;<7<;%4444<<>>#<>>44<4<   oooXXX...   4##O%<44<><<00p844486y7:0<<<",
">#:7<<;0<<<<4<04<#>>>>>>44440   oooXXX...   4<OO%<44<><400p6;04p0y7<;44;",
"<;#:<%;;;;7:0<;4<<<<>><<44      XXXXXX...   ;#OO#<44;<<404604<;00y:;<444",
"<<;#<4;;;wada0444444<<<<44      XXXXXX...   <##O<444444444<yaf<<<<<04444",
"4<;#0<;;;6aafi444444<<<44<      XXXXXX...   #<OO<444444<4;7yaf<<<<7;4444",
"<###<<;<400iaay04006<;44;;;44   XXXXXX...      <<444;   44040y<<;;<<<<<4",
"<%##><;<4444aadd00ya060;<<;44   XXXXXX...      4<<44;   444<<:;7;<><<<<4",
">#%O::70;4444yaaa004;4;><<0;4   XXXXXX...      44<0<<   ;;<7;;<##O%<<<44",
">#%O;;;<<444;0aafi040<;   4<4   XXXXXX...   0<444;   XXX   <<0%###<#<444",
"<##%<;447#;;40000004;#4   066   XXXXXX...   ;40i<;   XXX   <#;<<<#<;<444",
"4<<%<%;4;<<<<<<<4444<<;   4wp   XXXXXX...   <aaa7>   XXX   #><4<44444444",
"4<<>>>440%<<<<<<44;<         oooXXXXXXXXX   <yda:<   ooo      7;44444444",
"4<<<0<444<>;7<##%%;4         oooXXXXXXXXX   <;777;   ooo      ;746aay44<",
"4;;<<00<44;;04<>###%         oooXXXXXXXXX   <;7;<;   ooo      406yaa644;",
"4;;<0<0;4<;#0;>>#   ...............XXXXXX...      ooo...   ;<<;66adap44;",
"4444ya044440a07<%   ...............XXXXXX...      ooo...   0444p6aaaa444",
"44440000i48iay<<<   ...............XXXXXX...      ooo...   w6p400yaa644;",
";44400y00404f0<<><<<            ...XXXXXXXXXXXXXXX...   w6ay8a400yiy644%",
"#;%444aaa640f0440<44            ...XXXXXXXXXXXXXXX...   iiadaa4i0y;74444",
"<<<<44;<;444<0;<<<;<            ...XXXXXXXXXXXXXXX...   ;;%0da44;<<<%O#<",
"4<<>444;44;;><;;;<<4440   <00   ...XXXXXXXXX         4;4<4<0aa4;;;;;<##;",
"<<<>444;;7;:#;;;<<<744i   700   ...XXXXXXXXX         ;;40;;0ii4;;;;4<%#;",
"0<<>4444;:;;##<<0<0<444   6ay   ...XXXXXXXXX         4444<44444;44<<<40<",
";40;;40ap;44<;;;%<<7<470;;;77   ...XXXXXX   4444<;44444;4;4444<<<<;::74<",
"44<<<4iww744<;::<<<40<404<;77   ...XXXXXX   4<440<44444;;;;744<<;4#::;<#",
"40;4;4iyy<444<;#><<44444<<<4;   ...XXXXXX   0;44;444044<;<<;;;><44<;70;;",
"<ayaaai44444<;;;<#><<<<444      ...XXXXXX   aa4<4<aa0444;#<#O##746apw;<4",
"7yyddai4<0;4#;;;%>><<<<444      ...XXXXXX   ay<04;ad0;44;;##OO#;40ppa<4<",
"ydady0<4<;<<>;;;%>>;###<44      ...XXXXXX   a0<<0a<07<4<;;;+OO;:44660000",
"aady<;447;>>>>;;%<>;%%%<44444   ......ooo   a<<>yd<>#;<<%;##OO7;44440af0",
"dada7044<<>>>;;;%>><%%##44444   ......ooo   a0>>ya>>;0<<<;;#O#7<4444iaa4",
"d004444<0<<::0;##<<<4;4:;<<<4   ......ooo   ><;;;0;;<<<;;;<<44%<<<440aa0",
"a0<;444<<4440<777<<7<<<;;;;04   .........      4<;7:;<<<<<<444<<##440y04",
"<<<>44;<<444;yyy;<44<<<744;44   .........      4<<;<444%#%%4444%;##;444<",
"0<<>4<;<<4444y7y744<<<<744444   .........      4<<;0444%#%<4444<##;;444%",
"%<#:7;4;;<<<46pp700y;7;<44      .........   <;<;<444444<;4<4444;;<<<;444",
">;;;;7;0<<<<4yww<00a77;>44      .........   >;<0444444444444444444<<<444",
">;;;47;<4<<<4pww<yyy77;>44      .........   <;4440;44<0444<44444;4<<<4<4",
"<##O;:<%%<<;4444<##;7<44%%%<#   .........   4444aa<4<<#4440aaa447;7<;<>;",
"<>>#;;#O#%;;4<<7%44444<;>>%<<   .........   444400000704;70aad4444;;<##;",
"7>>;;;###<;;4<;;444%4%;4>#;<<   .........   4444004000<47:iaff4444;;<##;",
";0<<<<###;<44;;<4                                       00aaw64444<<<%%<",
"4%<;7<;;;<7;4;7<4                                       0ia4;;44;444<;;<",
"4<<<:7:444440:0;4                                       66y##;<;;444444<",
"4<<<7;7;4444647<044<<<ad00<4444467<;<<;7444444<<<<4<iap;67y<##<;4444444%",
"4444ppi44406a077ay00<<<afaa00;0<aaa00<<744<;<<44#%4444<;;#<>>;7;44<<<444",
"400y66444444ay0y00<<<<;aaay4;00y<0<;;;6w0a<;4<4<<<444;0;;;%###;74<000444",
"40y000;<4440aa00i07<<<<0yay;7y0077:;<7;y004%<<44<<44444;;;<##%444;004<44",
"4iad;#;444<<waaa;<<;<<<7pwy7;70y<<>#;60y004004440<407;4<;;;#O#4446yy00<;",
"aadd<;<04<<<6wpp4<<<>><44;<<<;<74<<%;7;:0iaaai44;0aa0444<4;#OO%444;;yaa0",
"aadd70<;4<<<;y6p;<<<><<4:0<<<7<74<<%;:470ipaay444<aai444;;;#OO%4;4:00aa7",
"appy;7;444%440ii;;;<###<444;;;;<;<<#<444400afi4400aa444<;%4>##<;;;44iaa0",
"p664<<;444444<<<0<7###;47:74<00<><<<<<<44<4aai440a44444%%%<<4444;<444a60",
"p66;<<;444444<<<;<4;#%%4:7;44<;4><<4<<<44<00ai44aa44444%##<<444<;<440pp6",
"667444;<<444<<<%4;;<%;<4wwy:7;<<<<<4<<<;<<<064;%<0<<<<<<;;<<<<44<;<4%444"
};
