/* XPM */
static char *b7b3463b6bc34e109931a7a02321d25dcBnas0brUPBnfmgN[] = {
/* columns rows colors chars-per-pixel */
"72 72 66 1 ",
"  c #2F1F4A",
". c #867F5F",
"X c #887E5F",
"o c #887E60",
"O c #897F60",
"+ c #887E61",
"@ c #897F61",
"# c #B0EA23",
"$ c #898060",
"% c #888061",
"& c #8A8060",
"* c #8A8061",
"= c #8A8161",
"- c #8B8161",
"; c #8B8261",
": c #8C8261",
"> c #8D8261",
", c #8C8361",
"< c #8D8361",
"1 c #8E8261",
"2 c #8E8361",
"3 c #8D8362",
"4 c #8F8461",
"5 c #8F8562",
"6 c #7B3DE5",
"7 c #9A60FD",
"8 c #D8C999",
"9 c #D9CB99",
"0 c #D9CA9A",
"q c #DBCB9B",
"w c #D9CD9A",
"e c #DACC9A",
"r c #DBCD9B",
"t c #DBCE9B",
"y c #DDCD9B",
"u c #DDCF9B",
"i c #DECE9B",
"p c #DCCC9C",
"a c #DDCD9D",
"s c #DCCE9C",
"d c #DDCF9D",
"f c #DECE9C",
"g c #DFCF9C",
"h c #DED09C",
"j c #DFD29C",
"k c #E1D19C",
"l c #E0D09D",
"z c #E1D29C",
"x c #E2D29D",
"c c #E3D29D",
"v c #E2D39D",
"b c #E4D19C",
"n c #E5D29C",
"m c #E4D39C",
"M c #E5D29D",
"N c #E6D39D",
"B c #E4D39E",
"V c #E3D49D",
"C c #E5D49C",
"Z c #E5D49D",
"A c #E6D59D",
"S c #E6D69D",
"D c #E6D69E",
"F c #9482C5",
"G c #D7C4FF",
"H c white",
/* pixels */
"huussplqusssusckccckhihhsssshhhhsuehhssesplppuhhushhhhhZVVcsluhlhhuuquqs",
"hhhhssppulhhpuhuhcVZkcVZhlhhuchhhhhhhsshslsspuucqehhhhhsshSsscZcccuspssu",
"hhhhsspssushpuhhlNNNkkVZilhhsscshuhhssshlslppuusqehhhhhsciZchhDZNssepssi",
"ssssppsuqlcupuhhssulhkucpsqsusuuhccchhhhspssullusqhhhhhsuqNshhchsssuquqi",
"sppsssqschhhsuqisuuihhciqqeuuusshscDchhhlpsshhhhsshhhhhssshhhhhssslclsiu",
"ppssssuuuhhhsqiqsuuihsuleeeuuusshchZhhhhssslhhhhsshhhhhssshhhhhsssusiucu",
"puuhshcccsuslsssspquhuqseeeuuusshccZchhscsNusuhhssssuscshhsssshspquulNZh",
"ullcccccclcuuuuisssquuupequshuuuhusVuuuuuhcuhsccZcsuuuuushpppssqpquucNZC",
"schZcccccuhhhuuuhsssuqqpqquhhehhhliZhhehshNuhiNcVcuuuuhshssqqpspqsuucNZC",
"sZZDZZVhcshhuqcshhhhulusulshhhhhhhhhsshhhhhhscZZZNhhspusss8qspssulssuNZZ",
"lNZDhccsuhhhqqkkNZZNckuhhhuZZchhhhhhhseqpshepqsuNbcsNNNusssqppsqqquuskkC",
"sZZDhhshshhhsukkNZZNkkhhhhhZVchhhhhhhheqpshsuulcbbsscbNlssqqpqcqqquuckkC",
"cNkZhschhhuusuliZNNZccchlucNNcehhhhhhseqqqhssshhVCulNNchssqssshsqsuucssN",
"slkkhhuqeeeessuusNNZZZchNZZsceeessshssqqesshhhhhhkCblspsseuhshssssshuscp",
"spuqhhhssqq8uuuuuihV                                    huuhhhcuhuuuuuuu",
"hpqqhhhseqqquuuuuluV                                    uuuhhhhhhuuuuuuu",
"heqquuuuuqeesshhsuus                                    uuushhhhuhssspsu",
"ssuiuquslsuehhhhs      666666666666777777777777777777777   khhhZkNlicsss",
"pqilssucsssshschs      666666666666777777777777777777777   ksuhbcNlsuhhu",
"suqiseuuuulicsuhs      666666666666777777777777777777777   cccuccNiushhh",
"ssuqshuuubZSZV   ###   666666666666666777777666666666777   NZDssssschhhh",
"hsuqcsuuuZZZZc   ###   666666666666666777777666666666777   NZDssssluhhhh",
"sqqqssushhccZZ   ###   666666666666666777777666666666777   ccNssuusssssh",
"seqqpsushhhhZD   ###   666HHHHHHHHH666777   777777777      sssuuuspssssh",
"pqe8iilcuhhhhN   ###   666HHHHHHHHH666777   777777777      shhsqq8essshh",
"pqe8uuusshhhuc   ###   666HHHHHHHHH666777   777777777      shhueqqsqshhh",
"sqqesuhhlquuhc         666HHH   HHH666777777777777777777   squspsqsushhh",
"hsseseuhusssss         666HHH   HHH666777777777777777777   qpssshhhhhhhh",
"hssppphhcessss         666HHH   HHH666777777777777777777   qpplihhhhhhhh",
"hssscshhhspulsqqe   ###   HHHHHHHHH666777777777777777777   sppuchkZZNhhs",
"huussccshhuuchspe   ###   HHHHHHHHH666777777777777777777   usshckNZZkhhu",
"huuscscuhsuqcuppq   ###   HHHHHHHHH666777777777777777777   ussukkZSZChhu",
"hhhhNZchhhhcZclse   ###   666666666666777777777777777777   cuhhCkZZZZhhh",
"hhhhccccchmVZNsss   ###   666666666666777777777777777777   bcbhccNZZkhhu",
"uhhhccccchchDcsss   ###   666666666666777777777777777777   NmZhccNVNkhhe",
"quehhhZZZkhcDchhs         666666666666666777               ZZZhVcNulhhhh",
"sssshhhuhhhhscuss         666666666666666777               kZDhhussse8qs",
"hssphhhuhhuupsuuu         666666666666666777               cZVhuuuuusqqu",
"sssphhuuuuuuquuussslhhc      666666677777777777   suuhuhhhucVVhuuuuhsequ",
"cssphhscsuuuqqsshucshhh      666666677777777777   scsshhhhhhhhhuhhssshcs",
"uhhschVNCuhhsuuussslshh      666666677777777777   hhhhhuhhhhhhssssuiilhs",
"hhseusVkblhhsuiisssscshcuh   666FFFGGGGGGGGGGGG   hhhhhhuuhshhssuhqiiusq",
"hcucihVNNshhhsuqpsschhhhss   666FFFGGGGGGGGGGGG   chhhhseusuuupshhsulcuu",
"sZNZZZVhhhhhsuuueppsssshhh   666FFFGGGGGGGGGGGG   DZchhhuupq8qqlhkZCbush",
"lNZSSZVhscuhquuueppssssssh   666FFFGGGGGGGGGGGG   ZZNshhuuqq88quhcCCZshs",
"NSSSNchhsusspuuueppupqusuc   666FFFGGGGGGGGGGGG   chshhsuuue88uihhkkcccc",
"ZZZZuchhluppppuuespueqqqlu   666FFFGGGGGGGGGGGG   sqqusseuqq88luhhhhcZDc",
"DZZNlshhsspppuuuepqu      777666FFF   GGGGGGGGG   squcssssuq88cshhhhVZZh",
"Scchhhhscssiicuqssss      777666FFF   GGGGGGGGG   ssussuuusshhessshhcZZc",
"Zcuuhhhsshhhcsllsssl      777666FFF   GGGGGGGGG   ulhssssshhhhssqqhhcNch",
"sssphhusshhhuNNNlucs   666666666777777   FFF777   schhheqeehhhhsuqquhhhs",
"sssphsusshhhhNlNhhss   666666666777777   FFF777   huhhheqqehhhheqquuhhhe",
"suquuihuussshkCClccN   666666666777777   FFF777   hhhhhsuhuhhhhsusssuhhh",
"puukucucsssshNbbsccZ         666777777   777777   hhhhsuhhshhhhhhhssshhh",
"puquslushssshCbbsNcZ         666777777   777777   hhhshchhshhhhhuhssshsh",
"lqq8uuseessuhhhhssqs         666777777   777777   hhsssshhcZDZhhlulsuspu",
"sppquuqqqeuussOO%$$$$$O;+++%O   666777         %444@,,@,iccZZDhhhhuusqqu",
"hppsueqqqsuucs;O%+$$$$O;++++@   666777         ;@@,,,@,,suNZDDhhhhuusqqu",
"hhhhueqqqusuhe+%;;;%%%X;;;-%-   666777         ;@,44455@NcZZbbhhhhsssees",
"hssshhquusl;;;;;;%+%X$;4;+---               ;+%%@O@@,44@;,4huehhuhhhsuus",
"hssslulchhs;;;OO;;;%@O,5;,;;,               ;%%%@@@@,44@,@,uupsuuhhhhhhs",
"hsssuhishhh;;OO;;;;+@O,5;,+;@               ;%%%@@--,,4O@,@sqqsuhhhhhhhe",
"hhhhNmVhhhchDc--4;--@@O454,;,,@O4,,;;;;;;;;+++%;++--;OO,iisqqsschhssshhh",
"hccNccshhhcsZN,33---+-O,44,;@,,,,OO+;OO;;;O;.;;%%+--;O,Oiisqqehuhsccchhh",
"hccNccushhhcZZ,,,,O;O+O;,54@@,4,;O;+;OO,,,@OO,O,OO;O;;;Ouusqqehhhucchshh",
"hVNSeuushhssbZZZillqsss;,,,O@,35%++++;;,,,,,,@,sssccsshsuuuq8qhhhkNNccsu",
"ZSSNilluhssskbCCususpps;@@@OO@@@;+;.$;;O,,,45,;hccZZchhhshuq88ehhhuuNZZc",
"ZSSSlsuchsssuNkCussspps,,@,OO,@@;%+X$;+;,@44,,;hssZZVhhhuuuq88ehuhiccZZl",
"ZCCNuhhhhhehhcVVususqqsssuhhsscsussqshsullcZDVhhccZZhhhsuehpqqsuuuhhVZZc",
"CkkhssuhhhhhhssshslqqqqhccihcshhpssssssclluNZVhhcZhhhhsseesshhhhushhhZkc",
"CkkussuhhhhhhssshscseeuhusihcshhpsshssssullNZVhhVZhhhhheqqsshhhsushhcCCk",
"kklhhhusshhhsssehuueesusbNNsusssssshsssuppsckhuescssssssuusssshhsushehhh"
};
