/* XPM */
static char *_17a323d048e4dcca04f5da1cc46dc6659FMuBX8UAl43HFP[] = {
/* columns rows colors chars-per-pixel */
"72 72 66 1 ",
"  c #2F1F4A",
". c #877E5F",
"X c #867F5F",
"o c #887E60",
"O c #897F60",
"+ c #887E61",
"@ c #897F61",
"# c #B0EA23",
"$ c #898060",
"% c #888061",
"& c #8A8060",
"* c #8A8061",
"= c #8A8161",
"- c #8B8161",
"; c #8B8261",
": c #8C8261",
"> c #8D8261",
", c #8C8361",
"< c #8D8361",
"1 c #8E8261",
"2 c #8E8361",
"3 c #8D8362",
"4 c #8F8461",
"5 c #8F8562",
"6 c #7B3DE5",
"7 c #9A60FD",
"8 c #D8C999",
"9 c #D9CB99",
"0 c #D9CA9A",
"q c #DBCB9B",
"w c #D9CD9A",
"e c #DACC9A",
"r c #DBCD9B",
"t c #DBCE9B",
"y c #DDCD9B",
"u c #DDCF9B",
"i c #DECE9B",
"p c #DCCC9C",
"a c #DDCD9D",
"s c #DCCE9C",
"d c #DDCF9D",
"f c #DECE9C",
"g c #DFCF9C",
"h c #DED09C",
"j c #DFD29C",
"k c #E1D19C",
"l c #E0D09D",
"z c #E1D29C",
"x c #E2D29D",
"c c #E3D29D",
"v c #E2D39D",
"b c #E4D19C",
"n c #E5D29C",
"m c #E4D39C",
"M c #E5D29D",
"N c #E6D39D",
"B c #E4D39E",
"V c #E3D49D",
"C c #E5D49C",
"Z c #E5D49D",
"A c #E6D59D",
"S c #E6D69D",
"D c #E6D69E",
"F c #9482C5",
"G c #D7C4FF",
"H c white",
/* pixels */
"huussplqusssusckccckhihhsssshhhhsuehhsseqqhppshhushhhhhVVVllsscshhuuquqs",
"hhhhssppulhhpuhuhcVZkcVZhlhhuchhhhhhhsshcshspuhhqehhhhhscsSscuZZccuspssu",
"hhhhsspssushpuhhlNNNkkVZilhhsscshuhhssshlllppulhqehhhhhsulNchhZZNssepssi",
"ssssppsuqlcupuhhssulhkucpsqsusuuhccchhhhpsssusuhsqhhhhhsuqcuhhchsssuquqi",
"sppsssqschhhsuqisuuihhciqqeuuusshscDchhhpssshhhhssshhhhssshhhhhssslclsiu",
"ppssssuuuhhhsqiqsuuihsuleeeuuusshchZhhhhssslhhhhssuchhhssshhhhhsssusiucu",
"puuhshcccsuslsssspquhuqseeeuuusshccZchhsllZeeshhssssuschhhsssshspquulNZh",
"ullcccccclcuuuuisssquuupequshuuuhusVuuuulhZhecccZcsuuuuushppppsspquucNZC",
"schZcccccuhhhuuuhsssuqqpqquhhuhehliZhuuussZuulccVcuhushshssqqpspqsuucNZC",
"sZZDZZVhcshhuqcshhhhuluscsuhhhhhhhhhssshcuhhscNZZNhhssecss8qspssulssuNZZ",
"lNZDhccsuhhhqqkkNZZNckuhushZCkhhhhhhhssepphuuulsbbssNNNssssqppsqqquuskkC",
"sZZDhhshshhhsukkNZZN                                    ssqqpqcqqquuckkC",
"cNkZhschhhuusuliZNNZ                                    ssqssshsqsuucssN",
"slkkhhuqeeeessuuucNZ                                    seuhshssssshuscp",
"spuqhhhssqq8uuuuu      666666666666777777777777777777777   hhhcuhuuuuuuu",
"hpqqhhhseqqquuuuh      666666666666777777777777777777777   hhhhhhuuuuuuu",
"heqquuuuuqeesscus      666666666666777777777777777777777   hhhhhuhssspsu",
"ssuiuquslsuehh   ###   666666666666666777777666666666777   khhhCkNlicsss",
"pqilssucsssshs   ###   666666666666666777777666666666777   khhhCcNlsuhhu",
"suqiseuuuulics   ###   666666666666666777777666666666777   VcsuccNiushhh",
"ssuqshuuubZSZV   ###   666HHHHHHHHH666777   777777777      NZDssssschhhh",
"hsuqcsuuuZZZZc   ###   666HHHHHHHHH666777   777777777      NZDssssluhhhh",
"sqqqssushhccZZ   ###   666HHHHHHHHH666777   777777777      cccssuusssssh",
"seqqpsushhhhZD         666HHH   HHH666777777777777777777   suliusspssssh",
"pqe8iilcuhhhhN         666HHH   HHH666777777777777777777   shhsqe8sqsshh",
"pqe8uuusshhhuc         666HHH   HHH666777777777777777777   shheqqqqsshhh",
"sqqesuhhlquuhcccc   ###   HHHHHHHHH666777777777777777777   squsssqsehhhh",
"hsseseuhusssssssu   ###   HHHHHHHHH666777777777777777777   qpqcshhhhhhhh",
"hssppphhcessssssh   ###   HHHHHHHHH666777777777777777777   qppschhhchhhh",
"hssscshhhspulsqqe   ###   666666666666777777777777777777   spphuukZZZhhe",
"huussccshhuuchspq   ###   666666666666777777777777777777   qsshckcSSZhhu",
"huuscscuhsuqcuppq   ###   666666666666777777777777777777   usuhhkNSZkhhh",
"hhhhNZchhhhcZclse         666666666666666777               hhhhCkZZZZhhh",
"hhhhccccVhzVZNssu         666666666666666777               NNkhccNZZkhhu",
"uhhhccNcchchDcssq         666666666666666777               cCZhccNZZkhhe",
"quehhhZZZkhcDchhhhhhbbk      666666677777777777   hshucscVZZZZhVcNsihhhh",
"sssshhusuhhhscussshhscc      666666677777777777   hhssusuuukZZhhussleqqs",
"hssphhhuhhuupsuussshulc      666666677777777777   hhuuhhssucZVhuuuuueqqu",
"sssphhhuuluiquuusssl   Sli   666FFFGGGGGGGGGGGG   hhquusluucVVhuuuhsseuu",
"cssphhhhuiuuqqsssucs   Sil   666FFFGGGGGGGGGGGG   hhlucuhhhhhhhhhsusshhs",
"uhcuuhcZbkhhuuuusssl   csu   666FFFGGGGGGGGGGGG   hhhhhuuuscuhssssuuilcq",
"hhssshVbkchhsuuislsh         666FFFGGGGGGGGGGGG   hhhhhuuuulhhssuhuqiuss",
"hcuhuhVNNshhssuqpssh         666FFFGGGGGGGGGGGG   hhchhssssuqupshhlulluq",
"sZNZZZVhhhhhsuuuqpps         666FFFGGGGGGGGGGGG   ZZchhhuupqqqsshkbCbuhh",
"lNNSSZVhcushquuuqpql   777777666FFFGGGGGGGGGGGG   ZDcuhhuuq888quhcVCZshh",
"NSZSNcshsusspuuueppu   777777666FFFGGGGGGGGGGGG   hclshsuuuq88uihhkkccNh",
"ZZSNsuhhlupppquueepu   777777666FFFGGGGGGGGGGGG   sqqussssuq88iihhhhcZZc",
"DZSZlchhsspppuhsesps      666666666777FFFFFF777   squcssssue88uchhhhVZZc",
"Scchhhhscssiicuqqsss      666666666777FFFFFF777   sssssuuusshhesssshVZZh",
"Zcuuhhhsshhhcslllssl      666666666777FFFFFF777   slusssssshhhssqqhhcNNs",
"sssphhusshhhuNNNushhsss      666777777777777777   cuhhheqeehhhheuququhhs",
"sssphsusshhhhNlNlhhssss      666777777777777777   hshhheqeshhhhsuqquhhhs",
"suquuihuussshkCCcccculs      666777777777777777   hhhhhsuhshhhhuhussuhhu",
"puukucucsssshNbbsccZlls+;,   666777      666777   hhhhhhhhhhhhhhhhssshhc",
"puquslushssshCbbsNNNllsO;O   666777      666777   hhhschhhshhhhhshssshss",
"lqq8uuseessuhhhhsqqulss;X.   666777      666777   hhssqhhhcZZZhhucssuspu",
"sppquuqqqeuussOOXO;;.;O;++   666   ;X%   666   %444@,,@,iccZZDhhhhuuuqqu",
"hppsueqqqsuucs;O;%XO;.O;++   666   %O%   666   ;@@,,,@,,suNZDDhhhhuusqqu",
"hhhhueqqqusuhe+%;%;;++.;O-   666   ;%+   666   ;@,44455@NcZZbbhhhhsupees",
"hssshhquusl;;;;;;++%.;;4-@      ;;+;%%      ;+%%@O@@,44@;,4huehhhhshshuu",
"hssslulchhs;;;OO;;;%OO,5-3      --OO%%      ;%%%@@@@,44@,@,uupsuuhhhhhhs",
"hsssukishhh;;OO;;;+%@O,533      -@-;%%      ;%%%@@--,,4O@,@sqqsuhhhhhhhs",
"hhhhNzVhhhchDc--4;--@-O4554;3;-O55,;O;;;;;;+++%;++--;OO,iisqqsschhssshhh",
"hccNccshhhcsZN,35---%+O,5,;;O,33-OOO;;O;;;O;X;;%%+--;O,Oiisqqehussccchhu",
"hccNccushhhcZZ,,,,O;O+O;,54@@,4,;O;+;OO,,,,OO;;;;+;O;;;Ouusqqqhhhhcchush",
"hVNSeuushhssbZZZillqsss;,,,O@,35%+++O;O,,,,@,OOshsccsshsuuuq88hhhkcNVcsu",
"ZSSNilluhssskbCCususpps;@@@OO@@@;+;XO+;;@,444,;hhcZZchhhcuue88ehhhucNNSl",
"ZSSSlsuchsssuNkCussspps,,@,OO,@@;%+.;;;+4,,44,;hhsZZVhhhssue88ehhhuicSSl",
"ZCCNuhhhhhehhcVVususqqsssuhhsscsussqshsullbZDZhhccZZhhhseehqqussuuhhcZZc",
"CkkhssuhhhhhhssshslqqqqhccihcshhpsssssscslhZZVhhcZhhhhssqqhsshhhushhsZCc",
"CkkussuhhhhhhssshscseeuhusihcshhpsshssssllsNZVhhVZhhhhheuqssschsushhhCCk",
"kklhhhusshhhsssehuueesusbNNsusssssshsssuspsckhuescssssssussssehhsussuhhh"
};
