/* XPM */
static char *_7073248616c4ddd8b9c8abd441bbef8kLKzx5XoOPcWYYtZ[] = {
/* columns rows colors chars-per-pixel */
"72 72 67 1 ",
"  c #2F1F4A",
". c #877E5F",
"X c #867F5F",
"o c #887E5F",
"O c #887E60",
"+ c #897F60",
"@ c #887E61",
"# c #897F61",
"$ c #B0EA23",
"% c #898060",
"& c #888061",
"* c #8A8060",
"= c #8A8061",
"- c #8A8161",
"; c #8B8161",
": c #8B8261",
"> c #8C8261",
", c #8D8261",
"< c #8C8361",
"1 c #8D8361",
"2 c #8E8261",
"3 c #8E8361",
"4 c #8D8362",
"5 c #8F8461",
"6 c #8F8562",
"7 c #7B3DE5",
"8 c #9A60FD",
"9 c #D8C999",
"0 c #D9CB99",
"q c #D9CA9A",
"w c #DBCB9B",
"e c #D9CD9A",
"r c #DACC9A",
"t c #DBCD9B",
"y c #DBCE9B",
"u c #DDCD9B",
"i c #DDCF9B",
"p c #DECE9B",
"a c #DCCC9C",
"s c #DDCD9D",
"d c #DCCE9C",
"f c #DDCF9D",
"g c #DECE9C",
"h c #DFCF9C",
"j c #DED09C",
"k c #DFD29C",
"l c #E1D19C",
"z c #E0D09D",
"x c #E1D29C",
"c c #E2D29D",
"v c #E3D29D",
"b c #E2D39D",
"n c #E4D19C",
"m c #E5D29C",
"M c #E4D39C",
"N c #E5D29D",
"B c #E6D39D",
"V c #E4D39E",
"C c #E3D49D",
"Z c #E5D49C",
"A c #E5D49D",
"S c #E6D59D",
"D c #E6D69D",
"F c #E6D69E",
"G c #9482C5",
"H c #D7C4FF",
"J c white",
/* pixels */
"jiiddazwidddidvlvvvljpjjddddjjjjdirjjddrwwjaadjjidjjjjjCCCzzddvdjjiiwiwd",
"jjjjddaaizjjaijijvCAlvCAjzjjivjjjjjjjddjvdjdaijjwrjjjjjdvdDdviAAvvidaddi",
"jjjjddaddidjaijjzBBBllCApzjjddvdjijjdddjzzzaaizjwrjjjjjdizBvjjAABddraddp",
"ddddaadiwzviaijjddizjlivadwdidiijvvvjjjjadddidijdwjjjjjdiwvijjvjdddiwiwp",
"daadddwdvjjjdiwpdiipjjvpwwriiiddjdvFvjjjadddjjjjdddjjjjdddjjjjjdddzvzdpi",
"aaddddiiijjjdwpwdiipjdizrrriiiddjvjAjjjjdddzjjjjddivjjjdddjjjjjdddidpivi",
"aiijdjvvvdidzddddawijiwdrrriiiddjvvAvjjdzzArrdjjddddidvjjjddddjdawiizBAj",
"izzvvvvvvzviiiipdddwiiiarwidjiiijidCiiiizjAjrvvvAvdiiiiidjaaaaddawiivBAZ",
"dvjAvvvvvijjjiiijdddiwwawwijjijrjzpAjiiiddAiizvvCvijidjdjddwwadawdiivBAZ",
"dAAFAACjvdjjiwvdjjjjizidvdijjjjjjjjjdddjvijjdvBAABjjddrvdd9wdaddizddiBAA",
"zBAFjvvdijjjwwllBAABvlijidjAZljjjjjjjddraajiiizdnnddBBBddddwaadwwwiidllZ",
"dAAFjjdjdjjjdillBAAB                                    ddwwawvwwwiivllZ",
"vBlAjdvjjjiidizpABBA                                    ddwdddjdwdiivddB",
"dzlljjiwrrrrddiiivBA                                    drijdjdddddjidva",
"daiwjjjddww9iiiii      777777777777888888888888888888888   jjjvijiiiiiii",
"jawwjjjdrwwwiiiij      777777777777888888888888888888888   jjjjjjiiiiiii",
"jrwwiiiiiwrrddvid      777777777777888888888888888888888   jjjjjijdddadi",
"ddipiwidzdirjj   $$$   777777777777777888888777777777888   ljjjZlBzpvddd",
"awpzddivddddjd   $$$   777777777777777888888777777777888   ljjjZvBzdijji",
"diwpdriiiizpvd   $$$   777777777777777888888777777777888   CvdivvBpidjjj",
"ddiwdjiiinADAC   $$$   777JJJJJJJJJ777888   888888888      BAFdddddvjjjj",
"jdiwvdiiiAAAAv   $$$   777JJJJJJJJJ777888   888888888      BAFddddzijjjj",
"dwwwddidjjvvAA   $$$   777JJJJJJJJJ777888   888888888      vvvddiidddddj",
"drwwadidjjjjAF         777JJJ   JJJ777888888888888888888   dizpiddaddddj",
"awr9ppzvijjjjB         777JJJ   JJJ777888888888888888888   djjdwr9dwddjj",
"awr9iiiddjjjiv         777JJJ   JJJ777888888888888888888   djjrwwwwddjjj",
"dwwrdijjzwiijvvvv   $$$   JJJJJJJJJ777888888888888888888   dwidddwdrjjjj",
"jddrdrijidddddddi   $$$   JJJJJJJJJ777888888888888888888   wawvdjjjjjjjj",
"jddaaajjvrddddddj   $$$   JJJJJJJJJ777888888888888888888   waadvjjjvjjjj",
"jdddvdjjjdaizdwwr   $$$   777777777777888888888888888888   daajiilAAAjjr",
"jiiddvvdjjiivjdaw   $$$   777777777777888888888888888888   wddjvlvDDAjji",
"jiidvdvijdiwviaaw   $$$   777777777777888888888888888888   idijjlBDAljjj",
"jjjjBAvjjjjvAvzdr         777777777777777888               jjjjZlAAAAjjj",
"jjjjvvvvCjxCABddr         777777777777777888               BBljvvBAAljji",
"ijjjvvBvvjvjFvddd         777777777777777888               vZAjvvBAAljjr",
"wirjjjAAAljvFvjjjdvpnlC      777777788888888888   jdjivdvCAAAAjCvBdpjjjj",
"ddddjjidijjjdvidddjljjv      777777788888888888   jjddidiiilAAjjiddzrwwd",
"jddajjjijjiiadiidddijjv      777777788888888888   jjiijjddivACjiiiiirwwi",
"dddajjjiizipwiiidddzjjCAvd   777GGGHHHHHHHHHHHH   jjwiidziivCCjiiijddrii",
"vddajjjjipiiwwddjdvdjdvAij   777GGGHHHHHHHHHHHH   jjzivijjjjjjjjjdiddjjd",
"ijviijvAnijjdiiidddddvdvrj   777GGGHHHHHHHHHHHH   jjjjjiiidvijddddiipzvw",
"jjdddjCnBijjdippdddv         777GGGHHHHHHHHHHHH   jjjjjiiiizjjddijiwpidd",
"jvijijCBBzjjjdiwaddd         777GGGHHHHHHHHHHHH   jjvjjddddiwiadjjzizziw",
"dABAAACjjjjjdiiiraaz         777GGGHHHHHHHHHHHH   AAvjjjiiawwwddjlnZnijj",
"zBBDDACjzijjaiiiwawz   888888777GGGHHHHHHHHHHHH   AFvijjiiw999wijvCZAdjj",
"BDADBvdjdiddaiiiraai   888888777GGGHHHHHHHHHHHH   jvzdjdiiiw99ipjjllvvBj",
"AADBdijjziaaawiirrai   888888777GGGHHHHHHHHHHHH   dwwiddddiw99ppjjjjvAAv",
"FADAzvjjddaaaiidrddd      777777777   GGGGGG888   dwivddddir99ivjjjjCAAv",
"Dvvjjjjdvddppviwwddd      777777777   GGGGGG888   dddddiiiddjjrddddjCAAj",
"Aviijjjddjjjvdzzzddz      777777777   GGGGGG888   dziddddddjjjddwwjjvBBd",
"dddajjiddjjjiBBBidjjddd      777888888   888888   vijjjrwrrjjjjriwiwijjd",
"dddajdiddjjjjBzBzjjdddd      777888888   888888   jdjjjrwrdjjjjdiwwijjjd",
"diwiipjiidddjlZZvvvvilj      777888888   888888   jjjjjdijdjjjjijiddijji",
"aiilivivddddjBnndvvAzdi@;<;;&   777888         jjjjjjjjjjjjjjjjjjjdddjjv",
"aiwidzidjdddjZnndBBAzzr@;;;;;   777888         jjvijjdvjjjdjjjjjdjdddjdd",
"zww9iidrrddijjjjdwdrvdj;XoX@@   777888         jAAdjddwjjjvAAAjjivddidai",
"daawiiw9wriijd++&&%%%%@;@@&&&%%&            ;;&;5#<#<<#<izvAADjjjjiiiwwi",
"zaaiiiwwwdiijd+;;&%%%%;;@XX&&%%&            &;<&#5<<<#<<zpBAFFjjjjiidwwi",
"ivddddwwwidijj;@;&;;&&%;;;;;%%&&            ;%;;<#55556#vvAAnnjjjjdiarrd",
"jrdizdiiidz;&;;;;&&&%%%5+;&;;<;&;&<&&&&&%&&<;&&&+###556#<<5jirjjjjdjdjii",
"jdddpviijjj;;&;;;;;&+&<5;<;;;&;<;@&;&&&%;;&&;&&&+@;;<5<#<#<iiadiijjjjjjd",
"jdddjjdzjjj;;;;&;;&&+&<5<<&;;&;&;;;;&&&<&;;;;&&&+@;;<<5##<#dwwdijjjjjjjd",
"jjjjZZCjjjvvAv;;5;;;&&;5555;;;;;555;;;;;;;;X&&;;@@;;;;+<ppdwwddvjjdddjjj",
"jvvBljjjjjjjAB<;5;;;&&;;55<;;<;;;;%&&&;<<;;&&;&&@@;;;+<+ppdwwrjiddvvvjji",
"jvBvvvidjjjvAA<<<<+;+@;;55<;+<<<;;;X;;;;<<;o&;;;&@;;&;;&iidwwwjjjjvvjidj",
"jCADiwijjjddnAAApzdiddd;5;;;;;;<&@@@@;;;<<;<;;&jjjvvjjjriiiw99jjjlvBCvdi",
"AADDdidvjdddlnZZidddaad;;;;&+<<#;&;X&;;;<<<655;jjiAACjjjviir99rjjjivBBDz",
"AADDzvdijdddiBlZidddadd;;@@&@<##;&@o%;&;<<<55;;jjjAACjjjddir99rjjjipvDDz",
"AZZBizijjjrjjvCCididwwwddiiiddzdiddwdjdizznAFAjjvvAAjjjdrrjwwiddiijjvAAv",
"ZlljddijjjjjjdddizzwwwijvvdvjjdvaddddddvppjBACjjvAjjjjjrwwjddjjjidjjdAZv",
"ZlliddijjjjjjddddidiwrrjididjjjjaddjddddzzdBACjjCAjjjjjriwdddvjdidjjjZZl",
"llzjjjiddjjjdddrviidridjnBBizddddddjdddidddvljrjdvddddddiddddrjjdiddijjj"
};
