/* XPM */
static char *_1da891c30df4b2fe5ff573fd1155137UcP1dWfIIBorQFAq[] = {
/* columns rows colors chars-per-pixel */
"72 72 65 1 ",
"  c #2F1F4A",
". c #867F5F",
"X c #887E60",
"o c #897F60",
"O c #887E61",
"+ c #897F61",
"@ c #B0EA23",
"# c #898060",
"$ c #888061",
"% c #8A8060",
"& c #8A8061",
"* c #8A8161",
"= c #8B8161",
"- c #8B8261",
"; c #8C8261",
": c #8D8261",
"> c #8C8361",
", c #8D8361",
"< c #8E8261",
"1 c #8E8361",
"2 c #8D8362",
"3 c #8F8461",
"4 c #8F8562",
"5 c #7B3DE5",
"6 c #9A60FD",
"7 c #D8C999",
"8 c #D9CB99",
"9 c #D9CA9A",
"0 c #DBCB9B",
"q c #D9CD9A",
"w c #DACC9A",
"e c #DBCD9B",
"r c #DBCE9B",
"t c #DDCD9B",
"y c #DDCF9B",
"u c #DECE9B",
"i c #DCCC9C",
"p c #DDCD9D",
"a c #DCCE9C",
"s c #DDCF9D",
"d c #DECE9C",
"f c #DFCF9C",
"g c #DED09C",
"h c #DFD29C",
"j c #E1D19C",
"k c #E0D09D",
"l c #E1D29C",
"z c #E2D29D",
"x c #E3D29D",
"c c #E2D39D",
"v c #E4D19C",
"b c #E5D29C",
"n c #E4D39C",
"m c #E5D29D",
"M c #E6D39D",
"N c #E4D39E",
"B c #E3D49D",
"V c #E5D49C",
"C c #E5D49D",
"Z c #E6D59D",
"A c #E6D69D",
"S c #E6D69E",
"D c #9482C5",
"F c #D7C4FF",
"G c white",
/* pixels */
"gyyaaik0yaaayaxjxxxjguggaaaaggggaywggaawaikiiyggyagggggCBBxakygkaxyy0y0a",
"ggggaaiiykggiygygxBCjxBCgkggyxgggggggaagakaaiyyx0wgggggaagAaaxCxCgaaiaay",
"ggggaaiaayagiyggkMMMjjBCukggaaxagyggaaagkakiiyya0wgggggaxuCxggSCMaawiaau",
"aaaaiiay0kxyiyggaaykgjyxia0ayayygxxxggggaiaaykkya0gggggay0Maggxgaayy0y0u",
"aiiaaa0axgggay0uayyuggxu00wyyyaagaxSxgggkiaaggggaagggggaaagggggaaakxukuy",
"iiaaaayyyggga0u0ayyugaykwwwyyyaagxgCggggaaakggggaagggggaaagggggaaayakyjg",
"iyygagxxxayakaaaai0ygy0awwwyyyaagxxCxggaxaMyayggaaaayaxaggaaaagai0yykMCu",
"ykkxxxxxxkxyyyyuaaa0yyyiw0yagyyygyaByyyyygxygaxxCxayyyyyagiiiaa0i0yyjMCV",
"axgCxxxxxygggyyygaaay00i00yggwgggkuCggwgagMyguMxBxyyyygagaa00iaiaiyyxMCV",
"aCCSCCBgxaggy0xaggggykyaykagggggggggaaggggggaxCCCMggaiyaaa70aiaaygaayMCS",
"kMCSgxxayggg00jjMCCMxjygggyCCxgggggggaw0iagwi0ayMvxaMMMyaaa0iia000yyajjV",
"aCCSggagagggayjjMCCMjjgggggCBxggggggggw0iagayykxvvaaxvMkaa00i0x000yygxjV",
"xMjCgaxgggyyaykuCMMCxxxgkyxMMxwggggggaw000gaaaggBVykMMxgaa0aaaga0wayxaaM",
"akjjggy0wwwwaayyaMMCCCxgMCCaxwwwaaagaa00waaggggggjVvkaiaawygagaaaaxayaxi",
"aiy0gggaa007yyyyyugB                                    gyygggxygyyyyyyy",
"gi00gggaw000yyyyykyB                                    yyyggggggyyyyyyy",
"gw00yyyyy0wwaaggayya                                    yyyaggggygaaaiay",
"aayuy0yakaywgggga      555555555555666666666666666666666   jgggCjMkuxaaa",
"i0ukaayxaaaagaxga      555555555555666666666666666666666   jaygvxMkayggy",
"ay0uawyyyykuxayga      555555555555666666666666666666666   xxxyxxMuyaggg",
"aay0agyyyvCACB   @@@   555555555555555666666555555555666   MCSaaaaaxgggg",
"gay0xayyyCCCCx   @@@   555555555555555666666555555555666   MCSaaaakygggg",
"a000aayaggxxCC   @@@   555555555555555666666555555555666   xxMaayyaaaaaa",
"aw00iayaggggCS   @@@   555GGGGGGGGG555666   666666666      aaayyyaiaaayg",
"i0w7uukxyggggM   @@@   555GGGGGGGGG555666   666666666      agga007wiaagg",
"i0w7yyyaagggyx   @@@   555GGGGGGGGG555666   666666666      aggyw00aiaggg",
"a00wayggk0yygx         555GGG   GGG555666666666666666666   a0yaia0aygggg",
"gaawawygyaaaaa         555GGG   GGG555666666666666666666   0iaaagggggggg",
"gaaiiiggxwaaaa         555GGG   GGG555666666666666666666   0iikugggggggg",
"gaaaxagggaiyka00w   @@@   GGGGGGGGG555666666666666666666   aiiyxgjCCMgga",
"gyyaaxxaggyyxgaiw   @@@   GGGGGGGGG555666666666666666666   yaagxjxACjggy",
"gyyaxaxygay0xyii0   @@@   GGGGGGGGG555666666666666666666   yaayjjMACVggy",
"ggggMMCggggBCxkaw   @@@   555555555555666666666666666666   xyggVjCCCCgag",
"ggggxxxxxgBgCMaaa   @@@   555555555555666666666666666666   vxvgxxMCBjgyy",
"wgggxxxxxgBxCxaaa   @@@   555555555555666666666666666666   MnCgxxMxxjggy",
"aywgggCCCjgxSxgga         555555555555555666               CCCgBCvgkgggg",
"aaaaggyaygggaxyaa         555555555555555666               jCSggyaakw00a",
"gaaigggyggyyiayyy         555555555555555666               xCBgyyyyyw00y",
"aaaiggjgykyy0yyyyaaaggx      555555566666666666   ayygygggyxBBgyyyyyawyy",
"xaaiggyayuyy00aaggaxgax      555555566666666666   axaagggggggggyggaaagga",
"yggyagBMVyggayyyaaaaagx      555555566666666666   gggggyggggggaaaayyukx0",
"ggawxaBjvkggayuuaaaxxaaxyy   555DDDFFFFFFFFFFFF   ggggggyygaggaaygy0uyaa",
"gxyxugBMMagggay0iaaaggggaa   555DDDFFFFFFFFFFFF   xggggawyayyyiaggkykky0",
"aCMCCCBgggggayyywiikaaaggg   555DDDFFFFFFFFFFFF   SCxgggyyi0700kgjvVvygg",
"kMCAACBgxygg0yyywiiaaaaggg   555DDDFFFFFFFFFFFF   CCMaggyy00770ygxBVCagg",
"MAAAMxggayaaiyyywiiy000agy   555DDDFFFFFFFFFFFF   xgaggayyyw77yuggjjxxxx",
"CCCCyxggkaiii0yywaiy00waak   555DDDFFFFFFFFFFFF   a00yaawy0077kyggggxCCx",
"SCCMkaggaaiiiyyywiaw      666555DDDFFFFFFFFFFFF   a0yxaaaay077xaggggBCCg",
"Axxggggaxayuuayyaaak      666555DDDFFFFFFFFFFFF   aaaaayyyaagyaaaaggxCCx",
"Cxyygggaagggkkkkyaak      666555DDDFFFFFFFFFFFF   ykyaaaaaagggaa00ggxMxg",
"aaaiggyaagggaMMMaaga   666555555666   DDDDDD666      ggw0wyggaayy00yggga",
"aaaigayaagggaMMvxgga   666555555666   DDDDDD666      ggw0wwggxaw00yygggw",
"ay0yyugyyaaaxjVVkxxM   666555555666   DDDDDD666      agayyygggggyaaayggg",
"iyyjyxyxaaaaaCvvaxxC         555555   666666666666   xggggggggggggaaaggg",
"iy0yakyagaaagVvvaMxM         555555   666666666666   gggggagggggygaaagag",
"k007yyawwaayggggaa0a         555555   666666666666   0aaggxCCCggkykayaiy",
"aia0yy000wyyaaoo######o-O$                  555666   =;oaxxCCAggggyya00y",
"xii0yy000ayyxa-o$O####o-O$                  555666   o--kyMCSSggggyya00y",
"yaggwy000yaygwO$O-$-$-o;==                  555666   44;xxCCvvggggaaawwa",
"gaaaga0yyak-------$$#.-;=$$=-$==--o-$$Oo.         ;+;43o-;3gywggygggayya",
"gaaaxyakgga---oo---O=O;4=-====$$==o-$$$-$         -o;3;o+;;yyiayygggggga",
"gaaaugkygga--oo----OOo34--=======oo-$$O--         ==;;3;;+;a00aygggggggw",
"ggggjVBgggxxSx==;;==$$-;444-====44;----$---OO$$-OO==o---u0a00aaxggaaaggg",
"gxxCxxggggaxCS==4===$$o-33--=====ooO-o->---$O--$$O==--o-uua00wgygaxxxggg",
"gxxMxkuagggxCC;;;--oo$o-;3=====4--oo-o==4;--o----O---;-oyyw00wgggyxxgagg",
"gCMAwyyxggaavCCCuxayaaa-;3====4=$OOOo-==;;----oagagxaaaayyy077gggxMMxxay",
"CAAAkuyagaaajvVVyaaaiia--oOOO==OoOo.oo-o;;;;3;-ggxCCBgggaxyw77wgygyyMCCx",
"CCAAukgggaaayMjVyaaai0a-o-==$===--o.---O;;33;--ggaCCxgggkayw77agygaxxCCk",
"CVVMggggggwggxBByaya00aagggygaagyaa0agggkkMCCCggxxCCxggawag000ayyyggBCCx",
"Vjjgaayggggggaaaxak0000gkukgggggiaaaaaagxagCCBggBCggaggwwwaagggyyagggCjx",
"Vjjyaayggggggaaayagy0wygukyaggggiaagaaagakaCCBggxCgggggw00aaggggyaggxVVj",
"jjkgggyaagggaaawgyyawwygvvMkkaaaaaagaaayaaaxxgaaaxaaaaaayyaaaaggayagwggg"
};
