/* XPM */
static char *result[] = {
/* columns rows colors chars-per-pixel */
"72 72 66 1 ",
"  c #666267",
". c #B3A789",
"X c #B4A989",
"o c #B5A98B",
"O c #B4AB8A",
"+ c #B6AA8B",
"@ c #B6AB8B",
"# c #B7AB8B",
"$ c #B7AC8B",
"% c #B7AD8B",
"& c #B7AB8C",
"* c #B8AC8B",
"= c #B9AD8B",
"- c #B8AE8B",
"; c #BAAE8B",
": c #BCAE8B",
"> c #BCAF8B",
", c #B9AD8C",
"< c #BAAE8C",
"1 c #BBAE8C",
"2 c #BAAF8C",
"3 c #BDAE8C",
"4 c #BEAF8C",
"5 c #BDB08B",
"6 c #BBB08C",
"7 c #BDB08C",
"8 c #BEB18C",
"9 c #BEB18D",
"0 c #D8C999",
"q c #D9CB99",
"w c #D9CA9A",
"e c #DBCB9B",
"r c #D9CD9A",
"t c #DACC9A",
"y c #DBCE9B",
"u c #DCCC9A",
"i c #DDCD9B",
"p c #DDCF9B",
"a c #DECE9B",
"s c #DCCC9C",
"d c #DDCD9D",
"f c #DCCE9C",
"g c #DDCF9D",
"h c #DECE9C",
"j c #DFCF9C",
"k c #DED09C",
"l c #DFD29C",
"z c #E1D19C",
"x c #E0D09D",
"c c #E1D29C",
"v c #E2D29D",
"b c #E3D29D",
"n c #E2D39D",
"m c #E4D19C",
"M c #E5D29C",
"N c #E4D39C",
"B c #E5D29D",
"V c #E6D39D",
"C c #E4D39E",
"Z c #E3D49D",
"A c #E5D49C",
"S c #E5D49D",
"D c #E6D59D",
"F c #E6D69D",
"G c #E6D69E",
"H c #F4E6CC",
/* pixels */
"kppfddiiifffikccCbbzjjkhfffkkkkkfppkkfftssksspkkpfkkkkkZZZxjkkxjjkaaiiif",
"kkkkffsffkkksikkjZZAccnGjjkkkkkkkkkkfffkkkksspkketkkkkkfjjDxkkGZZkffsffi",
"kkkkffsffkkksikkjZZAccnGjjkkkkkkkkkkfffkkkksspkketkkkkkfjjDxkkGZZkffsffi",
"ffffssfiikkksikkfhhxjjjvsseiigppkzzCjkkkddfiikkksekkkkkfiinjkkvhhfiiiiip",
"sssfffijjkkkfiiifppakkkktttpppffkxxFzkkkddfkkkkkffkkkkkfffkkkkkfffkkjjjp",
"sssfffijjkkkfiiifppakkkktttpppffkxxFzkkkddfkkkkkffkkkkkfffkkkkkfffkkjjjp",
"sppkkkzbbjkkkfffissyppifrrtpppffkzzDzkkfxxSffikkkdffikkkkkkfffksseaaxSSj",
"pxxZvvvvvjkkppppkffsiiiseeskkippkjjZkpppjjNppjvvZvpppppkggsssspsssppzVVN",
"pxxZvvvvvjkkppppkffsiiiseeskkippkjjZkpppjjNppjvvZvpppppkggsssspsssppzVVN",
"jSSGDDZkkkkksikkkkkkkkiskkkkkkkkkkkkfffkkkkkkvDDFVkkfsskffqesssppkffhDDF",
"jSSGxxjkkkkksizzBDDBzzkkkkjSSvkkkkkkkfftsskffijjmMkkbBBjffqesskeeeppkccA",
"jSSGxxjkkkkksizzBDDBzzkkkkjSSvkkkkkkkfftsskffijjmMkkbBBjffqesskeeeppkccA",
"jNNDjjkkkpppfpjjSVVDvvjkjjxSSnppkkkkkff0eekffpkkZNj*>3BlfftsffkssyaakjjZ",
"kjjckkpsstyykfppjbbDDDNkSSSxxsttfffkfss0yyfkkkkkjzA5*&dfffpkkkkffskkkkkd",
"kssekkkffwwwpppppjjZBBbpDDDhherrpppppffssssppikkkkv<%$pppppkkkkkkppppppp",
"kssekkkffwwwpppppj*63Bbp888tttttt$$$$@@ttttttttt%%<vkp$$$ppk%%%kkppppppp",
"ktt0aakpptrrsikkfp$*:mZs333tttttt##+#%%ttttttttt%%%kkk%%#ifk%%%kkkffsssi",
"siikffpkkfffkkkkfs+++sss%%%ttttttooX$##ttttttttto@%kfs+%2nAc%%%NNBjjkkkf",
"siikffpkkfffkkkkfssss+++ttt>>****ttt>>>***ttt+..o@%%@++%225;kkkNNBjjkkkf",
"fiiiffpiikhhxjkkffffs+@@ttt>>****ttt>>>***ttto..o@%%$@@%;;><xxivvb**%kkp",
"kffskkpiiNDDGnkkkkkkf@@%ttt>>****ttt>>>***ttto..@%%%%%%%%%*3GGsfff%%%kkk",
"kffskk$##NDDGnkkkk%%@ttt>>>ttt>>>***   >>>>>>   ***   >>>%*399+@@@%%%kkk",
"feetff$%%xvvDSbbjv<>*ttt>>>ttt>>>***   >>>>>>   ***   >>>%-,<<###$fffffk",
"stt0ss$%%kjjNDDDnb17;ttt>>>ttt>>>***   >>>>>>   ***   >>>%%%%%#$$@ssfffk",
"stt0aakkk%%%***tttttt>>>>>>>>>>>>   >>>   >>>***      %%%   kksttwssfkkk",
"stt0aakkk%%%***tttttt>>>>>>>>>>>>   >>>   >>>***      %%%   kksttwssfkkk",
"feetppkkk##=***tttttt>>>>>>>>>>>>   >>>   >>>***      %%%   iifsseffpkkk",
"kffsss$%%@@=******>>>>>>   >>>         >>>   >>>         oXosskHHHkkkkkk",
"kffsss$%%@@=******>>>>>>   >>>         >>>   >>>         oXosskHHHkkkkkk",
"kffskk%%%@@=******>>>>>>   >>>         >>>   >>>         %$@sskHHHDDNkkf",
"kpp@,,ckk******>>>>>>   >>>               >>>   >>>***HHH2,#HHHzzbDDNkkp",
"kpp@,,ckk******>>>>>>   >>>               >>>   >>>***HHH2,#HHHzzbDDNkkp",
"kkk%44Nkk******>>>>>>   >>>               >>>   >>>***HHH88,HHHNNGDDNkkk",
"pkkkvv>>>***   >>>   >>>                              %2>HHH>>%HHHZZzkki",
"pkkkvv>>>***   >>>   >>>                              %2>HHH>>%HHHZZzkki",
"siikkk>>>***   >>>   >>>                              <%2HHH99%HHHjjkkkf",
"kffskk***   ***   >>>                                 ******DDk$$@HHHqqf",
"kffskk***   ***   >>>                                 ******ZZk##$HHHeep",
"kffskk***   ***   >>>                                 ******ZZk##$HHHeep",
"kffskkkkk%>>   >>>                           >>>   >>>***         fffkkk",
"kkkikknNN*%%   >>>                           >>>   >>>***         iiakks",
"kkkikknNN*%%   >>>                           >>>   >>>***         iiakks",
"kjjjjjZBB   %>>   >>>      >>>                           ***   jjjkkkkke",
"jSSGDDZkk   +#$   >>>      >>>                           ***   jjjkkkkkk",
"jSSGDDZkk   +#$   >>>      >>>                           ***   jjjkkkkkk",
"SDDDvvjkk$@@sip$O+saeeefkkk>>>>>>   >>>                     jjj>>>jjjjjz",
"GDDDjjkkk@++sip$O+sitttskkk>>>>>>   >>>                     jjj>>>jjjjjx",
"GDDDjjkkk@++sip$O+sitttskkk>>>>>>   >>>                     jjj>>>jjjjjx",
"Dvvzkkkkkkaa#%#isffkpppaHHH>>>>>>>>>>>>>>>               >>>   jjjHHHDDx",
"bjjikkkddkkk%,,xpddkddkkHHH>>>>>>>>>>>>>>>               >>>   jjjHHHbbj",
"kffskkpffkkk%73BjkkkfffkHHH>>>>>>>>>>>>>>>               >>>   jjjHHHkkf",
"kffskkpffkkkkSBBjkkkfHHHHHHHHHHHH>>>kkk   jjj   jjj   jjj   HHHHHHiikkkf",
"fiiikkkiifffkNAAjvvmjHHHHHHHHHHHH>>>kkk   jjj   jjj   jjj   HHHHHHffpkkk",
"siikkkkkkfffkNmmjbbDxHHHHHHHHHHHH>>>kkk   jjj   jjj   jjj   HHHHHHfffkkk",
"siikkkkkkfffkNmmjbHHHxiskkkkkkHHHbbfHHHsppHHHpkkHHHkkkHHHHHHHHHkkkfffkkk",
"ktt0aasrrsffkkkkfsHHHkkkttrsspHHHkkkHHHkkkHHHkkkHHHkfsHHHHHHHHHkkkkkissi",
"ksseppewwfppkdppppHHHpdkssuffpHHHkkkHHHsffHHHkkkHHHvnxHHHHHHHHHkkkppfeep",
"ksseppewwfppkdppppppppdkssuHHHppkkkkpffHHHpkkHHHvbvHHHxkjHHHFFkHHHppfeep",
"kkkkffeeeikkkpffkkkaffickkkHHHffkkkkfssHHHfkkHHHkkAHHHGjnHHHmmkHHHffsttf",
"kfffkkiiikkkkkkkkppfiixDjjkHHHkkkkkkfffHHHkkkHHHffjHHHDjnHHHiifHHHkkkppf",
"kfffjjjkkkkkcjjjckkfddnGnnjkkkkkcjjkfffkkkkkkpffsskkZAAjzzbissfppkkkkkkf",
"kfffjjjkkkkkcjjjckkfddnGnnjkkkkkcjjkfffkkkkkkpffsskkZAAjzzbissfppkkkkkkf",
"kkkkAAZkkkccGvxxDbbkffhDGGDcckjjGSSjkkkkkkksspkkerkkkkkkiisssskkkkfffkkk",
"kvvNzzjkkkjjFSbbZxxkffivDDBjjnbbxjjpkjjNnnkppkkkfskkkkkpppfettkkkjvvxkkp",
"kvvNzzjkkkjjFSbbZxxkffivDDBjjnbbxjjpkjjNnnkppkkkfskkkkkpppfettkkkjvvxkkp",
"xSSGiiikkkhhmDSShkkifffkNNbjjvCCfsseizzBbbcxxjkkkkxxjkkfppit00kkkcSSNxxi",
"DDDDjjkkkfffjNNNpfffssfkjjhffkjjkffrpkkjvvADDbkkkjDDnkkkkkit00fppkjjvDDx",
"DDDDjjkkkfffjNNNpfffssfkjjhffkjjkffrpkkjvvADDbkkkjDDnkkkkkit00fppkjjvDDx",
"FAANkkkkkpppknnnpfffeeskkkkppikkiffefkkkxxNFFbkkzvSSxkkfffpeeefppikknDDx",
"AzzkffpkkkkkkfffkkkittekjjjkkkkksffkfffkkkkSSZkkCDkkkkktttfdkkkppfkkxAAz",
"AzzkffpkkkkkkfffkkkittekjjjkkkkksffkfffkkkkSSZkkCDkkkkktttfdkkkppfkkxAAz",
"zjjkkkpffkkkffffkiifffpkmmNjjiffsffkfffkddfzzkffjxffffffppifffkkkpffpkkk"
};
