/* XPM */
static char *result[] = {
/* columns rows colors chars-per-pixel */
"72 72 83 1 ",
"  c #1E1D44",
". c #1D1F46",
"X c #1D1F47",
"o c #1F224A",
"O c #21244A",
"+ c #2B365E",
"@ c #877E5F",
"# c #867F5F",
"$ c #887E5F",
"% c #887E60",
"& c #897F60",
"* c #887E61",
"= c #897F61",
"- c #898060",
"; c #888061",
": c #8A8061",
"> c #8A8161",
", c #8B8161",
"< c #8B8261",
"1 c #8C8261",
"2 c #8D8261",
"3 c #8C8361",
"4 c #8D8361",
"5 c #8E8261",
"6 c #8E8361",
"7 c #8D8362",
"8 c #8F8461",
"9 c #8F8562",
"0 c #495D9A",
"q c #2C83BD",
"w c #2C87C1",
"e c #2B89C3",
"r c #2A8AC4",
"t c #2D8FCB",
"y c #2D90CB",
"u c #23A7E1",
"i c #2CACE4",
"p c #2DACE4",
"a c #2DAEE6",
"s c #C7BA92",
"d c #C7BB92",
"f c #C8BC93",
"g c #D8C999",
"h c #D9CB99",
"j c #D9CA9A",
"k c #DBCB9B",
"l c #D9CD9A",
"z c #DACC9A",
"x c #DBCD9B",
"c c #DBCE9B",
"v c #DDCD9B",
"b c #DDCF9B",
"n c #DECE9B",
"m c #DCCC9C",
"M c #DDCD9D",
"N c #DCCE9C",
"B c #DDCF9D",
"V c #DECE9C",
"C c #DFCF9C",
"Z c #DED09C",
"A c #DFD29C",
"S c #E1D19C",
"D c #E0D09D",
"F c #E1D29C",
"G c #E2D29D",
"H c #E3D29D",
"J c #E2D39D",
"K c #E4D19C",
"L c #E5D29C",
"P c #E4D39C",
"I c #E5D29D",
"U c #E6D39D",
"Y c #E4D39E",
"T c #E3D49D",
"R c #E5D49C",
"E c #E5D49D",
"W c #E6D59D",
"Q c #E6D69D",
"! c #E6D69E",
"~ c #92DBFF",
"^ c #92E2FF",
"/ c #F8FCFE",
"( c white",
/* pixels */
"ZbbNMMvvvNNNvZFFYHHSCCZVNNNZZZZZNbbZZNNzmmZmmbZZbNZZZZZTTTDCZZDCCZnnvvvN",
"ZZZZNNmNNZZZmvZZCTTRFFJ!CCZZZZZZZZZZNNNZZZZmmbZZkzZZZZZNCCWDZZ!TTZNNmNNv",
"ZZZZNNmNNZZZmvZZCTTRFFJ!CCZZZZZZZZZZNNNZZZZmmbZZkzZZZZZNCCWDZZ!TTZNNmNNv",
"NNNNmmNvvZZZmvZZNVVDCCCGmmkvvBbbZSSYCZZZMMNvvZZZmkZZZZZNvvJCZZGVVNvvvvvb",
"mmmNNNvCCZZZNvvvNbbnZZZZzzzbbbNNZDDQSZZZMMNZZZZZNNZZZZZNNNZZZZZNNNZZCCCb",
"mmmNNNvCCZZZNvvvNbbnZZZZzzzbbbNNZDDQSZZZMMNZZZZZNNZZZZZNNNZZZZZNNNZZCCCb",
"mbbZZZSHHCZZZNNNvmmcbbvNllzbbbNNZSSWSZZNDDENNvZZZMNNvZZZZZZNNNZmmknnDEEC",
"bDDTGGGGGCZZbbbbZNNmvvvmkkmZZvbbZCCTZbbbCCPbbCGGTGbbbbbZBBmmmmbmmmbbSUUP",
"bDDTGGGGGCZZbbbbZNNmvvvmkkmZZvbbZCCTZbbbCCPbbCGGTGbbbbbZBBmmmmbmmmbbSUUP",
"CEE!WWTZZZZZmvZZZZZZZZvmZZZZZZZZZZZZNNNZZZZZZGWWQUZZNmmZNNhkmmmbbZNNVWWQ",
"CEE!DDCZZZZZmvSSIWWISSZZZZCEEGZZZZZZZNNzmmZNNvCCKLZZHIICNNhkmmZkkkbbZFFR",
"CEE!DDCZZZZZmvSSIWWISSZZZZCEEGZZZZZZZNNzmmZNNvCCKLZZHIICNNhkmmZkkkbbZFFR",
"CPPWCCZZZbbbNbCCEUUWGGCZCCDEEJbbZZZZZNNgkkZNNbZZTPCCPIIANNzmNNZmmcnnZCCT",
"ZCCFZZbmmzccZNbbCHHWWWPZEEEDDmzzNNNZNmmgccNZZZZZCSRRCMMNNNbZZZZNNmZZZZZM",
"ZmmkZZZNNjjjbbbbbCCTIIHbWWWVVkllbbbbbNNmmmmbbvZZZZGGZbbbbbbZZZZZZbbbbbbb",
"ZmmkZZZNNjjjbbbbbCCTIIHbWWWVVkllbbbbbNNmmmmbbvZZZZGGZbbbbbbZZZZZZbbbbbbb",
"ZzzgnnZbbzllmvZZNbbCKKTmIIIMMzllZvvmnZZZbbmmmbZZZZZZZZZZvvNZZZZZZZNNmmmv",
"mvvZNNbZZNNNZZZZNmmmmmmmZZZZZbmmmkkhbnnmbbZZZmggkNZZNmmZJJRFZZZPPICCZZZN",
"mvvZNNbZZNNNZZZZNmmmmmmmZZZZZbmmmkkhbnnmbbZZZmggkNZZNmmZJJRFZZZPPICCZZZN",
"NvvvNNbvvZVVDCZZNNNNmmNNZZZZZvNNmkkzbZZNbbZvvkggkNZZbNNZSSPGDDvGGHCCZZZb",
"ZNNmZZbvvPWW!JZZZZZZNNNZZZZZZZZZmmmmnZZZZZZmmkggNZZZZZZZZZCI!!mNNNZZZZZZ",
"ZNNmZZbvvPWW!JZZZZZZNNNZZZZZZZZZmmoooZZZZZZmmkggNZZZZZZZZZCI!!mNNNZZZZZZ",
"NkkzNNbZZDGGWEHHCGGPCCZZbbbZZbNNvvoooCCEGGZvvbNNNbZZbNNZZZADGGvvvbNNNNNZ",
"mzzgmmbZZZCCPWWWJHHEFFZnNNNZZbNNnZoooFFWHHSZZZZZbNZZNmmZZZZZZZnbbNmmNNNZ",
"mzzgnnZZZZZZZPWW!HHZZZvmZZZZZZZoooyyyoooTT!ZZZZZZZZZNmmZvvNZZZmzzjmmNZZZ",
"mzzgnnZZZZZZZPWW!HHZZZvmZZZZZZZooowwwoooTT!ZZZZZZZZZNmmZvvNZZZmzzjmmNZZZ",
"NkkzbbZZZvvvZDHHKGGZvvbNZZCSSCZooowwwoooTTQZZCGGVvvvbNNbNNkNvvNmmkNNbZZZ",
"ZNNmmmbZZNNNZNNNZZZZNNNZZZCRRGZooowwwoooGGWZZT!!CmmmvZZNkkhkmmZZZZZZZZZZ",
"ZNNmmmbZZNNNZNNNZZZZNNNZZZCRRGZooowwwoooGGWZZT!!CmmmvZZNkkhkmmZZZZZZZZZZ",
"ZNNmZZZZZNNNZNkkzmmZZZZZZZZCCHIooowwwoooZZCNNvCCZZZZTRRCZZbNmmZZZSWWPZZN",
"ZbbNDDFZZbvvGZmmhkkvZZZZnnMZoooiiiaaa^^^ooommbZZZvZZGPPJJJDvNNZSSHWWPZZb",
"ZbbNDDFZZbvvGZmmhkkvZZZZnnMZoooiiippp^^^ooommbZZZvZZGPPJJJDvNNZSSHWWPZZb",
"ZZZZUUPZZZFF!GbblkkNZZZZNNNZoooiiippp^^^ooommbZZNNZZZZZRWWWDZZZPP!WWPZZZ",
"bZZZGGHHHCFF!GMMmNNMJJJZvvbZoooiiiiiiiiiXXXbbbbbkkZZZZZJPPWKPPZHHITTSZZv",
"bZZZGGHHHCFF!GMMmNNMJJJZvsdfoooiiiiiippp+++bbbbbkkZZZZZJPPWKPPZHHITTSZZv",
"mvvZZZTWWFFF!GZZZZZCKKPZZoooqqqiiiiiippp~~~ooommzlZZZZZZJJW!!!ZTTKCCZZZN",
"ZNNmZZbNNZZZZZZZNbbZZZG!Foooqqqiiiiipppp~~~oooZZklZZNmmZvvNPWWZbbNZZNhhN",
"ZNNmZZZbbZnnmNbbbMMZZZJQCoooqqqiiiiipppp~~~oooZZmkZZvbbZZZvJTTZvvbbbNkkb",
"ZNNmZZZbbZnnmNbbbMMZZZJQCoooqqqiiiiii(((uuuoooZZmkZZvbbZZZvJTTZvvbbbNkkb",
"ZNNmZZZZZZbbgkNNZZZZZZDWCoooqqqiiiiii(((uuuoooZZNNZZZZZZZZZZZZZZZZNNNZZZ",
"ZZZvZZJPPCZZNbbbNMMZZZCJboooqqqiiiiii(((uuuoooZZZvZZZZZbbbZZZZNMMZvvnZZm",
"ZZZvZZJPPCZZNbbbNMMZZZoootttiiiiiiiii~~~(((~~~ooovZZZZZbbbZZZZNMMZvvnZZm",
"ZCCCCCTIICZZZZvvmNNZZZooorrriiiiiiiii~~~(((~~~oooZCCAZZNNNZZnnmbbZCCCZZk",
"CEE!WWTZZZZZmvbblmmZNNoooeeeiiiiiiiii~~~(((~~~oooC!!GZZZvvmjggmbbFRRPZZZ",
"CEE!WWTZZZZZmvbblmmZNNoooeeeiiiiiiiii~~~(((~~~oooC!!GZZZvvmjggmbbFRRPZZZ",
"EWWWGGCZZbNNmvbblmmnkkoooeeeiiiiiiiii~~~///~~~oooPCCVZZNbbbzggvZZCSSGKKS",
"!WWWCCZZZNmmmvbblmmvzzooo000eeeiiiiii(((iiiiiioooWmmvZZNNNvzggZZZZZZG!!D",
"!WWWCCZZZNmmmvbblmmvzzooo000eeeiiiiii(((iiiiiioooWmmvZZNNNvzggZZZZZZG!!D",
"WGGSZZZZZZnnnZvvmNNZbbooo000eeeiiiiii(((iiiiiioooSnnNNNvbbNNbbNNNNZZJWWD",
"HCCvZZZMMZZZZDDDbMMZMMZZbooo000iiiiiiiiiiiioooZZZvZZbNNNNNNZZZNmmmZZSHHC",
"ZNNmZZbNNZZZZEIICZZZNNNZZooo000iiiiiiiiiiiioooZZNNZZZZZzzzNZZZZxxzvvZZZN",
"ZNNmZZbNNZZZZEIICZZZNNNZZooo000iiiiiiiiiiiioooZZNNZZZZZzzzNZZZZxxzvvZZZN",
"NvvvZZZvvNNNZPRRCGGKCCbNZZZZooo000000000oooNNvZZZZZZZZZNbbnZZZZbbNNNbZZZ",
"mvvZZZZZZNNNZPKKCHHWDDvmZZ>>ooo000000000ooo*mbZZZZZZZZZZZZZZZZZZZZNNNZZZ",
"mvvZZZZZZNNNZPKKCHHWDDvmZZ>>ooo000000000ooo*mbZZZZZZZZZZZZZZZZZZZZNNNZZZ",
"ZzzgnnmllmNNZZZZNmmNZZZZzz#**->...   ooo>>>>ZZZZEUZZNmmZZZCI!!ZZZZZZvmmv",
"ZmmkbbkjjNbbZMbbbbbb--=>**$;;--ooooooooo;;->>>>>12GGJDDZCCHWQQZZZZbbNkkb",
"ZmmkbbkjjNbbZMbbbbbb--=>**$;;--OOOOOOooo;;->>>>>12GGJDDZCCHWQQZZZZbbNkkb",
"ZZZZNNkkkvZZZbNNZZZn;;&<>>>>>-;;>>>>;**@%%;>>>>>>>RRW!!CJJQEKKZZZZNNmzzN",
"ZNNNZZvvvZZZZZZZZ--;&&,8::>>>>>>>>>>;;;-&&>>>-;;;;::4WWCJJECvvNbbZZZZbbN",
"ZNNNCCCZZZZZFCCCF>>;==3933:>>>>><::>;;;>>>>>>-;;**>>4RRCSSHvmmNbbZZZZZZN",
"ZNNNCCCZZZZZFCCCF>>;==3933:>>>>><::>;;;>>>>>>-;;**>>4RRCSSHvmmNbbZZZZZZN",
"ZZZZRRTZZZFF!GDDWHHZ;;:8998<<>::966:>>>>>>>**->>%#ZZZZZZvvmmmmZZZZNNNZZZ",
"ZGGPSSCZZZCCQEHHTDDZ;;&1885::322,::->::433>-->>>;*ZZZZZbbbNkzzZZZCGGDZZb",
"ZGGPSSCZZZCCQEHHTDDZ;;&1885::322,::->::433>-->>>;*ZZZZZbbbNkzzZZZCGGDZZb",
"DEE!vvvZZZVVKWEEVZZvNNNZPP2::177;**%&,,522<,DCZZZZDDCZZNbbvzggZZZFEEPDDv",
"WWWWCCZZZNNNCPPPbNNNmmNZCC:;;>::>;;#->>:1168WHZZZCWWJZZZZZvzggNbbZCCGWWD",
"WWWWCCZZZNNNCPPPbNNNmmNZCC:;;>::>;;#->>:1168WHZZZCWWJZZZZZvzggNbbZCCGWWD",
"QRRPZZZZZbbbZJJJbNNNkkmZZZZbbvZZvNNkNZZZDDPQQHZZSGEEDZZNNNbkkkNbbvZZJWWD",
"RSSZNNbZZZZZZNNNZZZvzzkZCCCZZZZZmNNZNNNZZZZEETZZYWZZZZZzzzNMZZZbbNZZDRRS",
"RSSZNNbZZZZZZNNNZZZvzzkZCCCZZZZZmNNZNNNZZZZEETZZYWZZZZZzzzNMZZZbbNZZDRRS",
"SCCZZZbNNZZZNNNNZvvNNNbZKKPCCvNNmNNZNNNZMMNSSZNNCDNNNNNNbbvNNNZZZbNNbZZZ"
};
