/* XPM */
static char *result[] = {
/* columns rows colors chars-per-pixel */
"72 72 66 1 ",
"  c #1F224A",
". c #877E5F",
"X c #867F5F",
"o c #887E5F",
"O c #887E60",
"+ c #897F60",
"@ c #887E61",
"# c #897F61",
"$ c #898060",
"% c #888061",
"& c #8A8061",
"* c #8A8161",
"= c #8B8161",
"- c #8B8261",
"; c #8C8261",
": c #8D8261",
"> c #8C8361",
", c #8D8361",
"< c #8E8261",
"1 c #8E8361",
"2 c #8D8362",
"3 c #8F8461",
"4 c #8F8562",
"5 c #495D9A",
"6 c #2C87C1",
"7 c #2DACE4",
"8 c #2CC4E9",
"9 c #D8C999",
"0 c #D9CB99",
"q c #D9CA9A",
"w c #DBCB9B",
"e c #D9CD9A",
"r c #DACC9A",
"t c #DBCD9B",
"y c #DBCE9B",
"u c #DDCD9B",
"i c #DDCF9B",
"p c #DECE9B",
"a c #DCCC9C",
"s c #DDCD9D",
"d c #DCCE9C",
"f c #DDCF9D",
"g c #DECE9C",
"h c #DFCF9C",
"j c #DED09C",
"k c #DFD29C",
"l c #E1D19C",
"z c #E0D09D",
"x c #E1D29C",
"c c #E2D29D",
"v c #E3D29D",
"b c #E2D39D",
"n c #E4D19C",
"m c #E5D29C",
"M c #E4D39C",
"N c #E5D29D",
"B c #E6D39D",
"V c #E4D39E",
"C c #E3D49D",
"Z c #E5D49C",
"A c #E5D49D",
"S c #E6D59D",
"D c #E6D69D",
"F c #E6D69E",
"G c #8CD8FF",
"H c white",
/* pixels */
"jiidssuuudddujxxVvvlhhjgdddjjjjjdiijjddraajaaijjidjjjjjCCCzhjjzhhjppuuud",
"jjjjddaddjjjaujjhCCZxxbFhhjjjjjjjjjjdddjjjjaaijjwrjjjjjdhhSzjjFCCjddaddu",
"jjjjddaddjjjaujjhCCZxxbFhhjjjjjjjjjjdddjjjjaaijjwrjjjjjdhhSzjjFCCjddaddu",
"ddddaaduujjjaujjdggzhhhcaawuufiijllVhjjjssduujjjawjjjjjduubhjjcggduuuuui",
"aaaddduhhjjjduuudiipjjjjrrriiiddjzzDljjjssdjjjjjddjjjjjdddjjjjjdddjjhhhi",
"aaaddduhhjjjduuudiipjjjjrrriiiddjzzDljjjssdjjjjjddjjjjjdddjjjjjdddjjhhhi",
"aiijjjlvvhjjjddduaayiiudeeriiiddjllSljjdzzAddujjjsddujjjjjjdddjaawppzAAh",
"izzCccccchjjiiiijddauuuawwajjuiijhhCjiiihhMiihccCciiiiijffaaaaiaaaiilBBM",
"izzCccccchjjiiiijddauuuawwajjuiijhhCjiiihhMiihccCciiiiijffaaaaiaaaiilBBM",
"hAAFSSCjjjjjaujjjjjjjjuajjjjjjjjjjjjdddjjjjjjcSSDBjjdaajdd0waaaiijddgSSD",
"hAAFzzhjjjjjaullNSSNlljjjjhAAcjjjjjjjddraajdduhhnmjjvNNhdd0waajwwwiijxxZ",
"hAAFzzhjjjjjaullNSSNlljjjjhAAcjjjjjjjddraajdduhhnmjjvNNhdd0waajwwwiijxxZ",
"hMMShhjjjiiidihhABBScchjhhzAAbiijjjjjdd9wwjddijjCMhhMNNkddraddjaayppjhhC",
"jhhxjjiaaryyjdiihvvSSSMjAAAzzarrdd   aa9yydjjjjjhlZZhssdddijjjjddajjjjjs",
"jaawjjjddqqqiiiiihhCNNviSSSggweeii   ddaaaaiiujjjjccjiiiiiijjjjjjiiiiiii",
"jaawjjjddqqqiiiiihhCNNviSSSggweeii   ddaaaaiiujjjjccjiiiiiijjjjjjiiiiiii",
"jrr9ppjiireeaujjdiihnnCaNNNssre   666   iiaaaijjjjjjjjjjuudjjjjjjjddaaau",
"auujddijjdddjjjjdaaaaaaajjjjjia   666   iijjja99wdjjdaajbbZxjjjMMNhhjjjd",
"auujddijjdddjjjjdaaaaaaajjjjjia   666   iijjja99wdjjdaajbbZxjjjMMNhhjjjd",
"duuuddiuujggzhjjddddaaddjjjjjud   666   iijuuw99wdjjiddjllMczzuccvhhjjji",
"jddajjiuuMSSFbjjjjjjdddjjjjjjjj   666   jjjaaw99djjjjjjjjjhNFFadddjjjjjj",
"jddajjiuuMSSFbjjjjjjdddjjjjjjjj   666   jjjaaw99djjjjjjjjjhNFFadddjjjjjj",
"dwwrddijjzccSAvvhccMhhjjiiij   666777GGG   uuidddijjiddjjjkzccuuuidddddj",
"arr9aaijjjhhMSSSbvvAxxjpdddj   666777GGG   jjjjjidjjdaajjjjjjjpiidaadddj",
"arr9ppjjjjjjjMSSFvvjjjuajjjj   666777GGG   jjjjjjjjjdaajuudjjjarrqaadjjj",
"arr9ppjjjjjjjMSSFvvjjjuajjjj   777777777   jjjjjjjjjdaajuudjjjarrqaadjjj",
"dwwriijjjuuujzvvnccjuuidjjhl   777777777   jjhccguuuiddiddwduudaawddijjj",
"jddaaaijjdddjdddjjjjdddjjjhZ   777777777   jjCFFhaaaujjdww0waajjjjjjjjjj",
"jddaaaijjdddjdddjjjjdddjj   666777777777GGG   FFhaaaujjdww0waajjjjjjjjjj",
"jddajjjjjdddjdwwraajjjjjj   666777777777GGG   hhjjjjCZZhjjidaajjjlSSMjjd",
"jiidzzxjjiuucjaa0wwujjjjp   666777777777GGG   jjjujjcMMbbbzuddjllvSSMjji",
"jiidzzxjjiuucjaa0wwujjjjp   666777777HHH777   jjjujjcMMbbbzuddjllvSSMjji",
"jjjjBBMjjjxxFciiewwdjjjjd   666777777HHH777   jjddjjjjjZSSSzjjjMMFSSMjjj",
"ijjjccvvvhxxFcssaddsbbbju   666777777HHH777   iiwwjjjjjbMMSnMMjvvNCCljju",
"ijjjccvvvhxxFcssaddsbb   666777777777888HHHGGG   wjjjjjbMMSnMMjvvNCCljju",
"auujjjCSSxxxFcjjjjjhnn   666777777777888HHHGGG   ejjjjjjbbSFFFjCCnhhjjjd",
"jddajjiddjjjjjjjdiijjj   666777777777888HHHGGG   ejjdaajuudMSSjiidjjd00d",
"jddajjjiijppadiiissjjj   555666777777888HHHGGG   wjjuiijjjubCCjuuiiidwwi",
"jddajjjiijppadiiissjjj   555666777777888HHHGGG   wjjuiijjjubCCjuuiiidwwi",
"jddajjjjjjii9wddjjjjjj   555666777777888HHHGGG   djjjjjjjjjjjjjjjjdddjjj",
"jjjujjbMMhjjdiiidssjjj   555666666777HHH777777   ujjjjjiiijjjjdssjuupjja",
"jjjujjbMMhjjdiiidssjjj   555666666777HHH777777   ujjjjjiiijjjjdssjuupjja",
"jhhhhhCNNhjjjjuuaddjjj   555666666777HHH777777   jhhkjjdddjjppaiijhhhjjw",
"hAAFSSCjjjjjauiieaajdddjj   555666666777777   jjjhFFcjjjuuaq99aiixZZMjjj",
"hAAFSSCjjjjjauiieaajdddjj   555666666777777   jjjhFFcjjjuuaq99aiixZZMjjj",
"ASSScchjjiddauiieaapwwwdj   555666666777777   ddcMhhgjjdiiir99ujjhllcnnl",
"FSSShhjjjdaaauiieaaurrrajjjj   555666666   SSzaaMSaaujjdddur99jjjjjjcFFz",
"FSSShhjjjdaaauiieaaurrrajjjj   555666666   SSzaaMSaaujjdddur99jjjjjjcFFz",
"Sccljjjjjjpppjuuaddjiiipdddj   555666666   uuspphlppddduiiddiiddddjjbSSz",
"vhhujjjssjjjjzzzissjssjjiiijjvS         hhdddijjjujjiddddddjjjdaaajjlvvh",
"jddajjiddjjjjANNhjjjdddjjjjjjCS         vvjjjjjjddjjjjjrrrdjjjjttruujjjd",
"jddajjiddjjjjANNhjjjdddjjjjjjCS         vvjjjjjjddjjjjjrrrdjjjjttruujjjd",
"duuujjjuudddjMZZhccnhhidjjjjjhbbSMMivMMgggjddujjjjjjjjjdiipjjjjiidddijjj",
"auujjjjjjdddjMnnhvvSzzuajj****&&3::%111@$$*@aijjjjjjjjjjjjjjjjjjjjdddjjj",
"auujjjjjjdddjMnnhvvSzzuajj****&&3::%111@$$*@aijjjjjjjjjjjjjjjjjjjjdddjjj",
"jrr9ppaeeaddjjjjdaadjjjjrrX@@$**************jjjjABjjdaajjjhNFFjjjjjjuaau",
"jaawiiwqqdiijsiiiiiiiis*@@o%%$$$****$%%@%%$****jcvccbzzjhhvSDDjjjjiidwwi",
"jaawiiwqqdiijsiiiiiiiis*@@o%%$$$****$%%@%%$****jcvccbzzjhhvSDDjjjjiidwwi",
"jjjjddwwwujjjiddjjjpddu-*****$%%****%@@.OO%****jjjZZSFFhbbDAnnjjjjddarrd",
"jdddjjuuujjjjjjjjiid++=3&&**********%%%$++***$%%%%hhMSShbbAhuudiijjjjiid",
"jdddhhhjjjjjxhhhxjjd##>4>>&*****-&&*%%%******$%%@@jjCZZhllvuaadiijjjjjjd",
"jdddhhhjjjjjxhhhxjjd##>4>>&*****-&&*%%%******$%%@@jjCZZhllvuaadiijjjjjjd",
"jjjjZZCjjjxxFczzSvvjddg3443--*&&411&*******@@$*jwejjjjjjuuaaaajjjjdddjjj",
"jccMllhjjjhhDAvvCzzjddu;33<&&>::=&&$*&&,>>*$$**jdajjjjjiiidwrrjjjhcczjji",
"jccMllhjjjhhDAvvCzzjddu;33<&&>::=&&$*&&,>>*$$**jdajjjjjiiidwrrjjjhcczjji",
"zAAFuuujjjggnSAAgjjudddjMM:&&;22%@@O+==<::-=zhjjjjzzhjjdiiur99jjjxAAMzzu",
"SSSShhjjjdddhMMMidddaadjhh&%%*&&*%%X$**&;;13SvjjjhSSbjjjjjur99diijhhcSSz",
"SSSShhjjjdddhMMMidddaadjhh&%%*&&*%%X$**&;;13SvjjjhSSbjjjjjur99diijhhcSSz",
"DZZMjjjjjiiijbbbidddwwajjjjiiujjuddwdjjjzzMDDvjjlcAAzjjdddiwwwdiiujjbSSz",
"ZlljddijjjjjjdddjjjurrwjhhhjjjjjaddjdddjjjjAACjjVSjjjjjrrrdsjjjiidjjzZZl",
"ZlljddijjjjjjdddjjjurrwjhhhjjjjjaddjdddjjjjAACjjVSjjjjjrrrdsjjjiidjjzZZl",
"lhhjjjiddjjjddddjuudddijnnMhhuddaddjdddjssdlljddhzddddddiiudddjjjiddijjj"
};
