/* XPM */
static char *result[] = {
/* columns rows colors chars-per-pixel */
"72 72 81 1 ",
"  c #1E1D44",
". c #1D1F46",
"X c #1D1F47",
"o c #1F224A",
"O c #23254C",
"+ c #2B365E",
"@ c #877E5F",
"# c #867F5F",
"$ c #887E5F",
"% c #887E60",
"& c #897F60",
"* c #887E61",
"= c #898060",
"- c #888061",
"; c #8A8061",
": c #8A8161",
"> c #8B8161",
", c #8B8261",
"< c #8C8261",
"1 c #8D8261",
"2 c #8C8361",
"3 c #8D8361",
"4 c #8E8261",
"5 c #8E8361",
"6 c #8D8362",
"7 c #8F8461",
"8 c #8F8562",
"9 c #495D9A",
"0 c #2C83BD",
"q c #2C87C1",
"w c #2B89C3",
"e c #2A8AC4",
"r c #2D8FCB",
"t c #2D90CB",
"y c #23A7E1",
"u c #2CACE4",
"i c #2DACE4",
"p c #2DAEE6",
"a c #C7BB92",
"s c #C8BC93",
"d c #D8C999",
"f c #D9CB99",
"g c #D9CA9A",
"h c #DBCB9B",
"j c #D9CD9A",
"k c #DACC9A",
"l c #DBCD9B",
"z c #DBCE9B",
"x c #DDCD9B",
"c c #DDCF9B",
"v c #DECE9B",
"b c #DCCC9C",
"n c #DDCD9D",
"m c #DCCE9C",
"M c #DDCF9D",
"N c #DECE9C",
"B c #DFCF9C",
"V c #DED09C",
"C c #DFD29C",
"Z c #E1D19C",
"A c #E0D09D",
"S c #E1D29C",
"D c #E2D29D",
"F c #E3D29D",
"G c #E2D39D",
"H c #E4D19C",
"J c #E5D29C",
"K c #E4D39C",
"L c #E5D29D",
"P c #E6D39D",
"I c #E4D39E",
"U c #E3D49D",
"Y c #E5D49C",
"T c #E5D49D",
"R c #E6D59D",
"E c #E6D69D",
"W c #E6D69E",
"Q c #92DBFF",
"! c #92E2FF",
"~ c #F8FCFE",
"^ c white",
/* pixels */
"VccmnnxxxmmmxVSSIFFZBBVNmmmVVVVVmccVVmmkbbVbbcVVcmVVVVVUUUABVVABBVvvxxxm",
"VVVVmmbmmVVVbxVVBUUYSSGWBBVVVVVVVVVVmmmVVVVbbcVVhkVVVVVmBBRAVVWUUVmmbmmx",
"VVVVmmbmmVVVbxVVBUUYSSGWBBVVVVVVVVVVmmmVVVVbbcVVhkVVVVVmBBRAVVWUUVmmbmmx",
"mmmmbbmxxVVVbxVVmNNABBBDbbhxxMccVZZIBVVVnnmxxVVVbhVVVVVmxxGBVVDNNmxxxxxc",
"bbbmmmxBBVVVmxxxmccvVVVVkkkcccmmVAAEZVVVnnmVVVVVmmVVVVVmmmVVVVVmmmVVBBBc",
"bbbmmmxBBVVVmxxxmccvVVVVkkkcccmmVAAEZVVVnnmVVVVVmmVVVVVmmmVVVVVmmmVVBBBc",
"bccVVVZFFBVVVmmmxbbzccxmjjkcccmmVZZRZVVmAATmmxVVVnmmxVVVVVVmmmVbbhvvATTB",
"cAAUDDDDDBVVccccVmmbxxxbhhbVVxccVBBUVcccBBKccBDDUDcccccVMMbbbbcbbbccZPPK",
"cAAUDDDDDBVVccccVmmbxxxbhhbVVxccVBBUVcccBBKccBDDUDcccccVMMbbbbcbbbccZPPK",
"BTTWRRUVVVVVbxVVVVVVVVxbVVVVVVVVVVooommVVVVVVDRREPVVmbbVmmfhbbbccVmmNRRE",
"BTTWAABVVVVVbxZZLRRLZZVVVVBTTDVVVVooommkbbVmmxBBHJVVFLLBmmfhbbVhhhccVSSY",
"BTTWAABVVVVVbxZZLRRLZZVVVVBTTDVVVVooommkbbVmmxBBHJVVFLLBmmfhbbVhhhccVSSY",
"BKKRBBVVVcccmcBBTPPRDDBVBBATTGcoootttooohhVmmcVVUKBBKLLCmmkbmmVbbzvvVBBU",
"VBBSVVcbbkzzVmccBFFRRRKVTTTAAbkoooqqqooozzmVVVVVBZYYBnnmmmcVVVVmmbVVVVVn",
"VbbhVVVmmgggcccccBBULLFcRRRNNhjoooqqqooobbbccxVVVVDDVccccccVVVVVVccccccc",
"VbbhVVVmmgggcccccBBULLFcRRRNNhjoooqqqooobbbccxVVVVDDVccccccVVVVVVccccccc",
"VkkdvvVcckjjbxVVmccBHHUbLLLnnkjoooqqqoooccbbbcVVVVVVVVVVxxmVVVVVVVmmbbbx",
"bxxVmmcVVmmmVVVVmbbbbbbbVVVVVcboooqqqoooccVVVbddhmVVmbbVGGYSVVVKKLBBVVVm",
"bxxVmmcVVmmmVVVVmbbbbbbbVVVVooouuuppp!!!oooVVbddhmVVmbbVGGYSVVVKKLBBVVVm",
"mxxxmmcxxVNNABVVmmmmbbmmVVVVooouuuiii!!!oooxxhddhmVVcmmVZZKDAAxDDFBBVVVc",
"VmmbVVcxxKRRWGVVVVVVmmmVVVVVooouuuiii!!!ooobbhddmVVVVVVVVVBLWWbmmmVVVVVV",
"VmmbVVcxxKRRWGVVVVVVmmmVVVVVooouuuuuuuuuXXXbbhddmVVVVVVVVVBLWWbmmmVVVVVV",
"mhhkmmcVVADDRTFFBDDKBBVVcaasooouuuuuuiii+++xxcmmmcVVcmmVVVCADDxxxcmmmmmV",
"bkkdbbcVVVBBKRRRGFFTSSVvmooo000uuuuuuiiiQQQoooVVcmVVmbbVVVVVVVvccmbbmmmV",
"bkkdvvVVVVVVVKRRWFFVVVxbVooo000uuuuuiiiiQQQoooVVVVVVmbbVxxmVVVbkkgbbmVVV",
"bkkdvvVVVVVVVKRRWFFVVVxbVooo000uuuuuiiiiQQQoooVVVVVVmbbVxxmVVVbkkgbbmVVV",
"mhhkccVVVxxxVAFFHDDVxxcmVooo000uuuuuu^^^yyyoooDDNxxxcmmcmmhmxxmbbhmmcVVV",
"VmmbbbcVVmmmVmmmVVVVmmmVVooo000uuuuuu^^^yyyoooWWBbbbxVVmhhfhbbVVVVVVVVVV",
"VmmbbbcVVmmmVmmmVVVVmmmVVooo000uuuuuu^^^yyyoooWWBbbbxVVmhhfhbbVVVVVVVVVV",
"VmmbVVVVVmmmVmhhkbbVVVooorrruuuuuuuuuQQQ^^^QQQoooVVVUYYBVVcmbbVVVZRRKVVm",
"VccmAASVVcxxDVbbfhhxVVoooeeeuuuuuuuuuQQQ^^^QQQoooxVVDKKGGGAxmmVZZFRRKVVc",
"VccmAASVVcxxDVbbfhhxVVooowwwuuuuuuuuuQQQ^^^QQQoooxVVDKKGGGAxmmVZZFRRKVVc",
"VVVVPPKVVVSSWDccjhhmVVooowwwuuuuuuuuuQQQ^^^QQQooomVVVVVYRRRAVVVKKWRRKVVV",
"cVVVDDFFFBSSWDnnbmmnGGooowwwuuuuuuuuuQQQ~~~QQQooohVVVVVGKKRHKKVFFLUUZVVx",
"cVVVDDFFFBSSWDnnbmmnGGooo999wwwuuuuuu^^^uuuuuuooohVVVVVGKKRHKKVFFLUUZVVx",
"bxxVVVURRSSSWDVVVVVBHHooo999wwwuuuuuu^^^uuuuuuooojVVVVVVGGRWWWVUUHBBVVVm",
"VmmbVVcmmVVVVVVVmccVVVooo999wwwuuuuuu^^^uuuuuuooojVVmbbVxxmKRRVccmVVmffm",
"VmmbVVVccVvvbmcccnnVVVGEBooo999uuuuuuuuuuuuoooVVbhVVxccVVVxGUUVxxcccmhhc",
"VmmbVVVccVvvbmcccnnVVVGEBooo999uuuuuuuuuuuuoooVVbhVVxccVVVxGUUVxxcccmhhc",
"VmmbVVVVVVccdhmmVVVVVVARBooo999uuuuuuuuuuuuoooVVmmVVVVVVVVVVVVVVVVmmmVVV",
"VVVxVVGKKBVVmcccmnnVVVBGccxAooo999999999oooVVVVVVxVVVVVcccVVVVmnnVxxvVVb",
"VVVxVVGKKBVVmcccmnnVVVBGccxAooo999999999oooVVVVVVxVVVVVcccVVVVmnnVxxvVVb",
"VBBBBBULLBVVVVxxbmmVVVVVmmmVooo999999999oooBBBVVVVBBCVVmmmVVvvbccVBBBVVh",
"BTTWRRUVVVVVbxccjbbVmmmVVVVmmcV...   oooBBRWWKVVVBWWDVVVxxbgddbccSYYKVVV",
"BTTWRRUVVVVVbxccjbbVmmmVVVVmmcVoooooooooBBRWWKVVVBWWDVVVxxbgddbccSYYKVVV",
"TRRRDDBVVcmmbxccjbbvhhhmVVVxxVVOOOOOOooovvARRDmmDKBBNVVmccckddxVVBZZDHHZ",
"WRRRBBVVVmbbbxccjbbxkkkbVVVVVVVVVxxbvvvbccVRRAbbKRbbxVVmmmxkddVVVVVVDWWA",
"WRRRBBVVVmbbbxccjbbxkkkbVVVVVVVVVxxbvvvbccVRRAbbKRbbxVVmmmxkddVVVVVVDWWA",
"RDDZVVVVVVvvvVxxbmmVcccvmmmVVUTTVVVvVVVvccmxxnvvBZvvmmmxccmmccmmmmVVGRRA",
"FBBxVVVnnVVVVAAAcnnVnnVVcccVVFRRDAAVVBBDBBmmmcVVVxVVcmmmmmmVVVmbbbVVZFFB",
"VmmbVVcmmVVVVTLLBVVVmmmVVVVVVURRWTTCCAAWFFVVVVVVmmVVVVVkkkmVVVVllkxxVVVm",
"VmmbVVcmmVVVVTLLBVVVmmmVVVVVVURRWTTCCAAWFFVVVVVVmmVVVVVkkkmVVVVllkxxVVVm",
"mxxxVVVxxmmmVKYYBDDHBBcmVVVVVBGGRKKcFKKNNNVmmxVVVVVVVVVmccvVVVVccmmmcVVV",
"bxxVVVVVVmmmVKHHBFFRAAxbVVVVV:;;711-555*=cVbbcVVVVVVVVVVVVVVVVVVVVmmmVVV",
"bxxVVVVVVmmmVKHHBFFRAAxbVVVVV:;;711-555*=cVbbcVVVVVVVVVVVVVVVVVVVVmmmVVV",
"VkkdvvbjjbmmVVVVmbbmVVVVkkjbb=:::::::::::VVVVVVVTPVVmbbVVVBLWWVVVVVVxbbx",
"VbbhcchggmccVnccccccccnVbb$--===::::=--*--=:VVVVDFDDGAAVBBFREEVVVVccmhhc",
"VbbhcchggmccVnccccccccnVbb$--===::::=--*--=:VVVVDFDDGAAVBBFREEVVVVccmhhc",
"VVVVmmhhhxVVVcmmVVVvmmxSVV:::=--::::-**@%%-:VVVVVVYYRWWBGGETHHVVVVmmbkkm",
"VmmmVVxxxVVVVVVVVccmxxA7;;::::::::::---=&&:::=-mmmBBKRRBGGTBxxmccVVVVccm",
"VmmmBBBVVVVVSBBBSVVmnnG822;:::::,;;:---::::::=-mbbVVUYYBZZFxbbmccVVVVVVm",
"VmmmBBBVVVVVSBBBSVVmnnG822;:::::,;;:---::::::=-mbbVVUYYBZZFxbbmccVVVVVVm",
"VVVVYYUVVVSSWDAARFFVmmNRWW7,,:;;855;:::::::*bcVVhjVVVVVVxxbbbbVVVVmmmVVV",
"VDDKZZBVVVBBETFFUAAVmmxDRR4;;211>;;=:;;322:=cVVVmbVVVVVcccmhkkVVVBDDAVVc",
"VDDKZZBVVVBBETFFUAAVmmxDRR4;;211>;;=:;;322:=cVVVmbVVVVVcccmhkkVVVBDDAVVc",
"ATTWxxxVVVNNHRTTNVVxmmmVKKFBB<66-**%&>>41FSAABVVVVAABVVmccxkddVVVSTTKAAx",
"RRRRBBVVVmmmBKKKcmmmbbmVBBNmm:;;:--#=::;<DYRRFVVVBRRGVVVVVxkddmccVBBDRRA",
"RRRRBBVVVmmmBKKKcmmmbbmVBBNmm:;;:--#=::;<DYRRFVVVBRRGVVVVVxkddmccVBBDRRA",
"EYYKVVVVVcccVGGGcmmmhhbVVVVccxVVxmmhmVVVAAKEEFVVZDTTAVVmmmchhhmccxVVGRRA",
"YZZVmmcVVVVVVmmmVVVxkkhVBBBVVVVVbmmVmmmVVVVTTUVVIRVVVVVkkkmnVVVccmVVAYYZ",
"YZZVmmcVVVVVVmmmVVVxkkhVBBBVVVVVbmmVmmmVVVVTTUVVIRVVVVVkkkmnVVVccmVVAYYZ",
"ZBBVVVcmmVVVmmmmVxxmmmcVHHKBBxmmbmmVmmmVnnmZZVmmBAmmmmmmccxmmmVVVcmmcVVV"
};
