/* XPM */
static char *result[] = {
/* columns rows colors chars-per-pixel */
"72 72 67 1 ",
"  c #14182E",
". c #511222",
"X c red",
"o c #8C8361",
"O c #8E8462",
"+ c #8E8562",
"@ c #8F8563",
"# c #8F8663",
"$ c #8F8664",
"% c #908664",
"& c #908764",
"* c #918764",
"= c #686F99",
"- c #D8C999",
"; c #D9C999",
": c #D9CB99",
"> c #DACA98",
", c #D9CA9A",
"< c #DACA9A",
"1 c #DBCB9B",
"2 c #DACC98",
"3 c #DACC99",
"4 c #DBCC99",
"5 c #DACD99",
"6 c #D9CD9A",
"7 c #DACC9A",
"8 c #DBCD9B",
"9 c #DBCE9B",
"0 c #DCCD9A",
"q c #DDCD9B",
"w c #DDCF9B",
"e c #DFCE9A",
"r c #DFCF9A",
"t c #DECE9B",
"y c #DCCC9C",
"u c #DDCD9D",
"i c #DCCE9C",
"p c #DDCF9D",
"a c #DECE9C",
"s c #DFCF9C",
"d c #DED09A",
"f c #DFD19A",
"g c #DED09C",
"h c #DFD29C",
"j c #E1D099",
"k c #E1D199",
"l c #E2D19A",
"z c #E1D19C",
"x c #E0D09D",
"c c #E1D29C",
"v c #E2D29D",
"b c #E3D29D",
"n c #E2D39D",
"m c #E4D19C",
"M c #E5D29C",
"N c #E4D39C",
"B c #E5D29D",
"V c #E6D39D",
"C c #E4D39E",
"Z c #E3D49D",
"A c #E5D49C",
"S c #E5D49D",
"D c #E6D59D",
"F c #E6D69D",
"G c #E6D69E",
"H c #A3A7C2",
"J c #DFE0E8",
/* pixels */
"gwwiuuqqqiiiqgccCbbzssgaiiigggggiwwggii7yygyywggwigggggZZZxsggxssgttqqqi",
"ggggiiyiigggyqggsZZAccnGssggggggggggiiiggggyywgg17gggggissDxggGZZgiiyiiq",
"ggggiiyiigggyqggsZZAccnGssggggggggggiiiggggyywgg17gggggissDxggGZZgiiyiiq",
"iiiiyyiqqgggyqggiaaxsssvyy1qqpwwgzzCsggguuiqqgggy1gggggiqqnsggvaaiqqqqqw",
"yyyiiiqssgggiqqqiwwtgggg777wwwiigxxFzggguuigggggiigggggiiigggggiiiggsssw",
"yyyiiiqssgggiqqqiwwtgggg777wwwiigxxFzggguuigggggiigggggiiigggggiiiggsssw",
"ywwgggzbbsgggiiiqyy9wwqi667wwwiigzzDzggixxSiiqggguiiqggggggiiigyy1ttxSSs",
"wxxZvvvvvsggwwwwgiiyqqqy11yggqwwgssZgwwwssNwwsvvZvwwwwwgppyyyywyyywwzVVN",
"wxxZvvvvvsggwwwwgiiyqqqy11yggqwwgssZgwwwssNwwsvvZvwwwwwgppyyyywyyywwzVVN",
"sSSGDDZgggggyqggggggggqyggggggggggggiiiggggggvDDFVggiyygii:1yyywwgiiaDDF",
"sSSGxxsgggggyqzzBDDBzzggggsSSvgggggggii7yygiiqssmMggbBBsii:1yyg111wwgccA",
"sSSGxxsgggggyqzzBDDBzzggggs                  qssmMggbBBsii:1yyg111wwgccA",
"sNNDssgggwwwiwssSVVDvvsgssx                  wggZNssNBBhii7yiigyy9ttgssZ",
"gsscggwyy799giwwsbbDDDNgSSS                  gggszAAsuuiiiwggggiiygggggu",
"gyy1gggii,,,wwwwwssZBBbw   HHHJJJJJJJJJJJJHHH   ggvvgwwwwwwggggggwwwwwww",
"gyy1gggii,,,wwwwwssZBBbw   HHHJJJJJJJJJJJJHHH   ggvvgwwwwwwggggggwwwwwww",
"g77-ttgww766yqggiwwsmmZy   HHHJJJJJJJJJJJJHHH   ggggggggqqigggggggiiyyyq",
"yqqgiiwggiiiggggiyyyy   HHHJJJJJJJJJJJJJJJJJJHHH   giyygnnAcgggNNBssgggi",
"yqqgiiwggiiiggggiyyyy   HHHJJJJJJJJJJJJJJJJJJHHH   giyygnnAcgggNNBssgggi",
"iqqqiiwqqgaaxsggiiiiy   HHHJJJJJJJJJJJJJJJJJJHHH   gwiigzzNvxxqvvbssgggw",
"giiyggwqqNDDGnggggggi   HHHJJJJJJJJJJJJJJJJJJHHH   gggggggsBGGyiiigggggg",
"giiyggwqqNDDGnggggggi   HHHJJJJJJJJJJJJJJJJJJHHH   gggggggsBGGyiiigggggg",
"i117iiwggxvvDSbbsvvNs   ===HHHJJJJJJJJJJJJHHH===   gwiiggghxvvqqqwiiiiig",
"y77-yywgggssNDDDnbbSc   ===HHHJJJJJJJJJJJJHHH===   giyygggggggtwwiyyiiig",
"y77-ttgggggggNDDGbbgg   ===HHHJJJJJJJJJJJJHHH===   giyygqqigggy77,yyiggg",
"y77-ttgggggggNDDGbbgg   HHH   HHHJJJJJJHHH   HHH   giyygqqigggy77,yyiggg",
"i117wwgggqqqgxbbmvvgq   HHH   HHHJJJJJJHHH   HHH   qwiiwii1iqqiyy1iiwggg",
"giiyyywggiiigiiiggggi   HHH   HHHJJJJJJHHH   HHH   yqggi11:1yygggggggggg",
"giiyyywggiiigiiiggggi   HHH......HHHHHH......HHH   yqggi11:1yygggggggggg",
"giiygggggiiigi117yygg   HHH......HHHHHH......HHH   gZAAsggwiyygggzDDNggi",
"gwwixxcggwqqvgyy:11qg   HHH......HHHHHH......HHH   gvNNnnnxqiigzzbDDNggw",
"gwwixxcggwqqvgyy:11qg   HHH...XXXJJJJJJXXX...HHH   gvNNnnnxqiigzzbDDNggw",
"ggggVVNgggccGvww611ig   HHH...XXXJJJJJJXXX...HHH   ggggADDDxgggNNGDDNggg",
"wgggvvbbbsccGvuuyiiun   HHH...XXXJJJJJJXXX...HHH   ggggnNNDmNNgbbBZZzggq",
"wgggvvbbbsccGvuuyiiunnng   HHHJJJ======JJJHHH   11gggggnNNDmNNgbbBZZzggq",
"yqqgggZDDcccGvgggggsmmNg   HHHJJJ======JJJHHH   76ggggggnnDGGGgZZmssgggi",
"giiyggwiigggggggiwwgggvG   HHHJJJ======JJJHHH   16ggiyygqqiNDDgwwiggi::i",
"giiygggwwgttyiwwwuugg      JJJ   JJJJJJ   JJJ      gqwwgggqnZZgqqwwwi11w",
"giiygggwwgttyiwwwuugg      JJJ   JJJJJJ   JJJ      gqwwgggqnZZgqqwwwi11w",
"giiyggggggww-1iiggggg      JJJ   JJJJJJ   JJJ      gggggggggggggggiiiggg",
"gggqggnNNsggiwwwiu   JJJJJJ                  JJJJJJ   gwwwggggiuugqqtggy",
"gggqggnNNsggiwwwiu   JJJJJJ                  JJJJJJ   gwwwggggiuugqqtggy",
"gsssssZBBsggggqqyi   JJJJJJ                  JJJJJJ   giiiggttywwgsssgg1",
"sSSGDDZgggggyqw   JJJ===   ===HHHJJJJJJHHH===   ===JJJ   qy,--ywwcAANggg",
"sSSGDDZgggggyqw   JJJ===   ===HHHJJJJJJHHH===   ===JJJ   qy,--ywwcAANggg",
"SDDDvvsggwiiyqw   JJJ===   ===HHHJJJJJJHHH===   ===JJJ   ww7--qggszzvmmz",
"GDDDssgggiyyyqw   JJJJJJ   HHHJJJ======JJJHHH   JJJJJJ   iq7--ggggggvGGx",
"GDDDssgggiyyyqw   JJJJJJ   HHHJJJ======JJJHHH   JJJJJJ   iq7--ggggggvGGx",
"Dvvzggggggtttgq   JJJJJJ   HHHJJJ======JJJHHH   JJJJJJ   wiiwwiiiiggnDDx",
"bssqggguuggggxxxwu            ===HHHHHH===            iiiiigggiyyyggzbbs",
"giiyggwiiggggSBBsg            ===HHHHHH===            g777igggg887qqgggi",
"giiyggwiiggggSBBsg            ===HHHHHH===            g777igggg887qqgggi",
"iqqqgggqqiiigNAAsvvmsswi   HHHHHH      HHHHHH   gggggggiwwtggggwwiiiwggg",
"yqqggggggiiigNmmsbbDxxqy   HHHHHH      HHHHHH   ggggggggggggggggggiiiggg",
"yqqggggggiiigNmmserl00>y   HHHHHH      HHHHHH   g555553gggggggggggiiiggg",
"g77-tty66yiiggggio$$%%%&+oo      oooooo      oo+&%%%$$ogggsBGGggggggqyyq",
"gyy1ww1,,iwwgu2wwoooooooooo      oooooo      oooooooooogs4bDFFggggwwi11w",
"gyy1ww1,,iwwgu&@Ooooooooooo      oooooo      oooooooooo+@*bDFFggggwwi11w",
"ggggii111qgggw&@+ooooooooooooooooooooooooooooooooooooooO#*FSmmggggiiy77i",
"giiiggqqqggggg5ggoooooooooooooooooooooooooooooooooooooosndSsqqiwwggggwwi",
"giiisssgggggcsssco%$$$%&+oooooooooooooooooooooo+%$%%%%oszzbqyyiwwggggggi",
"giiisssgggggcsssc35:<<dGnooooooooooooooooooooooiy;55fkjtzzbqyyiwwggggggi",
"ggggAAZgggccGvxxDbbgiiaDGo&%%%%%&%%%%%%%%%%$$$og16ggggggqqyyyyggggiiiggg",
"gvvNzzsgggssFSbbZxxgiiqvDDBssnbbxsswgssNnngwwgggiygggggwwwi177gggsvvxggw",
"gvvNzzsgggssFSbbZxxgiiqvDDBssnbbxsswgssNnngwwgggiygggggwwwi177gggsvvxggw",
"xSSGqqqgggaamDSSaggqiiigNNbssvCCiyy1qzzBbbcxxsggggxxsggiwwq7--gggcSSNxxq",
"DDDDssgggiiisNNNwiiiyyigssaiigssgii6wggsvvADDbgggsDDngggggq7--iwwgssvDDx",
"DDDDssgggiiisNNNwiiiyyigssaiigssgii6wggsvvADDbgggsDDngggggq7--iwwgssvDDx",
"FAANgggggwwwgnnnwiii11yggggwwqggqii1igggxxNFFbggzvSSxggiiiw111iwwqggnDDx",
"Azzgiiwggggggiiigggq771gsssgggggyiigiiiggggSSZggCDggggg777iugggwwiggxAAz",
"Azzgiiwggggggiiigggq771gsssgggggyiigiiiggggSSZggCDggggg777iugggwwiggxAAz",
"zssgggwiigggiiiigqqiiiwgmmNssqiiyiigiiiguuizzgiisxiiiiiiwwqiiigggwiiwggg"
};
