/* XPM */
static char *result[] = {
/* columns rows colors chars-per-pixel */
"72 72 62 1 ",
"  c #14182E",
". c #511222",
"X c red",
"o c #8C8361",
"O c #8E8462",
"+ c #8E8562",
"@ c #8F8563",
"# c #8F8663",
"$ c #8F8664",
"% c #908664",
"& c #908764",
"* c #918764",
"= c #686F99",
"- c #D8C999",
"; c #D9C999",
": c #D9CB99",
"> c #D9CA9A",
", c #DACA9A",
"< c #DBCB9B",
"1 c #DACC98",
"2 c #DACC99",
"3 c #DBCC99",
"4 c #DACD99",
"5 c #D9CD9A",
"6 c #DACC9A",
"7 c #DBCD9B",
"8 c #DBCE9B",
"9 c #DDCD9B",
"0 c #DDCF9B",
"q c #DECE9B",
"w c #DCCC9C",
"e c #DDCD9D",
"r c #DCCE9C",
"t c #DDCF9D",
"y c #DECE9C",
"u c #DFCF9C",
"i c #DED09A",
"p c #DFD19A",
"a c #DED09C",
"s c #DFD29C",
"d c #E1D099",
"f c #E1D199",
"g c #E1D19C",
"h c #E0D09D",
"j c #E1D29C",
"k c #E2D29D",
"l c #E3D29D",
"z c #E2D39D",
"x c #E4D19C",
"c c #E5D29C",
"v c #E4D39C",
"b c #E5D29D",
"n c #E6D39D",
"m c #E4D39E",
"M c #E3D49D",
"N c #E5D49C",
"B c #E5D49D",
"V c #E6D59D",
"C c #E6D69D",
"Z c #E6D69E",
"A c #A3A7C2",
"S c #DFE0E8",
/* pixels */
"a00ree999rrr9ajjmllguuayrrraaaaar00aarr6wwaww0aa0raaaaaMMMhuaahuuaqq999r",
"aaaarrwrraaaw9aauMMNjjzZuuaaaaaaaaaarrraaaaww0aa<6aaaaaruuVhaaZMMarrwrr9",
"aaaarrwrraaaw9aauMMNjjzZuuaaaaaaaaaarrraaaaww0aa<6aaaaaruuVhaaZMMarrwrr9",
"rrrrwwr99aaaw9aaryyhuuukww<99t00aggmuaaaeer99aaaw<aaaaar99zuaakyyr999990",
"wwwrrr9uuaaar999r00qaaaa666000rrahhCgaaaeeraaaaarraaaaarrraaaaarrraauuu0",
"wwwrrr9uuaaar999r00qaaaa666000rrahhCgaaaeeraaaaarraaaaarrraaaaarrraauuu0",
"w00aaaglluaaarrr9ww8009r556000rraggVgaarhhBrr9aaaerr9aaaaaarrraww<qqhBBu",
"0hhMkkkkkuaa0000arrw999w<<waa900auuMa000uuv00ukkMk00000attwwww0www00gnnv",
"0hhMkkkkkuaa0000arrw999w<<waa900auuMa000uuv00ukkMk00000attwwww0www00gnnv",
"uBBZVVMaaaaaw9aaaaaaaa9waaaaaaaaaaaarrraaaaaakVVCnaarwwarr:<www00arryVVC",
"uBBZhhuaaaaaw9ggbVVbggaaaauBBkaaaaaaarr6wwarr9uuxcaalbburr:<wwa<<<00ajjN",
"uBBZhhuaaaaaw9ggbVVbggaaaauBBkaaaaaaarr6wwarr9uuxcaalbburr:<wwa<<<00ajjN",
"uvvVuuaaa000r0uuBnnVkkuauuhBBz00aaaaarr-<<arr0aaMvuuvbbsrr6wrraww8qqauuM",
"auujaa0ww688ar00ullVVVvaBBBhhw66rrrarww-88raaaaaugNNueerrr0aaaarrwaaaaae",
"aww<aaarr>>>00000uuMbbl0VVVyy<5500000rrwwww009aaaakka000000aaaaaa0000000",
"aww<aaarr>>>00000uuMbbl0VVVyy<5500000rrwwww009aaaakka000000aaaaaa0000000",
"a66-qqa00655w9aar00uxxMwbbbee655a99wqaaa00www0aaaaaaaaaa99raaaaaaarrwww9",
"w99arr0aarrraaaarwwwwwwwaaa                  w--<raarwwazzNjaaavvbuuaaar",
"w99arr0aarrraaaarwwwwwwwaaa                  w--<raarwwazzNjaaavvbuuaaar",
"r999rr099ayyhuaarrrrwwrraaa                  <--<raa0rraggvkhh9kkluuaaa0",
"arrwaa099vVVZzaaaaaarrra   AAASSSSSSSSSSSSAAA   raaaaaaaaaubZZwrrraaaaaa",
"arrwaa099vVVZzaaaaaarrra   AAASSSSSSSSSSSSAAA   raaaaaaaaaubZZwrrraaaaaa",
"r<<6rr0aahkkVBllukkvuuaa   AAASSSSSSSSSSSSAAA   r0aa0rraaashkk9990rrrrra",
"w66-ww0aaauuvVVVzllBj   AAASSSSSSSSSSSSSSSSSSAAA   arwwaaaaaaaq00rwwrrra",
"w66-qqaaaaaaavVVZllaa   AAASSSSSSSSSSSSSSSSSSAAA   arwwa99raaaw66>wwraaa",
"w66-qqaaaaaaavVVZllaa   AAASSSSSSSSSSSSSSSSSSAAA   arwwa99raaaw66>wwraaa",
"r<<600aaa999ahllxkka9   AAASSSSSSSSSSSSSSSSSSAAA   90rr0rr<r99rww<rr0aaa",
"arrwww0aarrrarrraaaar   AAASSSSSSSSSSSSSSSSSSAAA   w9aar<<:<wwaaaaaaaaaa",
"arrwww0aarrrarrraaaar   ===AAASSSSSSSSSSSSAAA===   w9aar<<:<wwaaaaaaaaaa",
"arrwaaaaarrrar<<6wwaa   ===AAASSSSSSSSSSSSAAA===   aMNNuaa0rwwaaagVVvaar",
"a00rhhjaa099kaww:<<9a   ===AAASSSSSSSSSSSSAAA===   akvvzzzh9rragglVVvaa0",
"a00rhhjaa099kaww:<<9a   AAA   AAASSSSSSAAA   AAA   akvvzzzh9rragglVVvaa0",
"aaaannvaaajjZk005<<ra   AAA   AAASSSSSSAAA   AAA   aaaaNVVVhaaavvZVVvaaa",
"0aaakklllujjZkeewrrez   AAA   AAASSSSSSAAA   AAA   aaaazvvVxvvallbMMgaa9",
"0aaakklllujjZkeewrrez   AAA......AAAAAA......AAA   aaaazvvVxvvallbMMgaa9",
"w99aaaMVVjjjZkaaaaaux   AAA......AAAAAA......AAA   aaaaazzVZZZaMMxuuaaar",
"arrwaa0rraaaaaaar00aa   AAA......AAAAAA......AAA   arwwa99rvVVa00raar::r",
"arrwaaa00aqqwr000eeaa   AAA...XXXSSSSSSXXX...AAA   a900aaa9zMMa99000r<<0",
"arrwaaa00aqqwr000eeaa   AAA...XXXSSSSSSXXX...AAA   a900aaa9zMMa99000r<<0",
"arrwaaaaaa00-<rraaaaa   AAA...XXXSSSSSSXXX...AAA   aaaaaaaaaaaaaaarrraaa",
"aaa9aazvvuaar000reeaaauz   AAASSS======SSSAAA   a9aaaaa000aaaareea99qaaw",
"aaa9aazvvuaar000reeaaauz   AAASSS======SSSAAA   a9aaaaa000aaaareea99qaaw",
"auuuuuMbbuaaaa99wrraaaaa   AAASSS======SSSAAA   aauusaarrraaqqw00auuuaa<",
"uBBZVVMaaaaaw9005wwar      SSS   SSSSSS   SSS      Zkaaa99w>--w00jNNvaaa",
"uBBZVVMaaaaaw9005wwar      SSS   SSSSSS   SSS      Zkaaa99w>--w00jNNvaaa",
"BVVVkkuaa0rrw9005wwq<      SSS   SSSSSS   SSS      uyaar0006--9aauggkxxg",
"ZVVVuuaaarwww9005w   SSSSSS                  SSSSSS   arrr96--aaaaaakZZh",
"ZVVVuuaaarwww9005w   SSSSSS                  SSSSSS   arrr96--aaaaaakZZh",
"Vkkgaaaaaaqqqa99wr   SSSSSS                  SSSSSS   r900rr00rrrraazVVh",
"luu9aaaeeaaaahh   SSS===   AAASSS======SSSAAA   ===SSS   rraaarwwwaagllu",
"arrwaa0rraaaaBb   SSS===   AAASSS======SSSAAA   ===SSS   6raaaa77699aaar",
"arrwaa0rraaaaBb   SSS===   AAASSS======SSSAAA   ===SSS   6raaaa77699aaar",
"r999aaa99rrravN   SSSSSS      ===AAAAAA===      SSSSSS   0qaaaa00rrr0aaa",
"w99aaaaaarrravx   SSSSSS      ===AAAAAA===      SSSSSS   aaaaaaaaarrraaa",
"w99aaaaaarrravx   SSSSSS      ===AAAAAA===      SSSSSS   aaaaaaaaarrraaa",
"a66-qqw55wrraaaaro         AAAAAA      AAAAAA         oaaaubZZaaaaaa9ww9",
"aww<00<>>r00ae100o         AAAAAA      AAAAAA         oau3lVCCaaaa00r<<0",
"aww<00<>>r00ae&@Oo         AAAAAA      AAAAAA         o+@*lVCCaaaa00r<<0",
"aaaarr<<<9aaa0&@+ooooooooooooooooooooooooooooooooooooooO#*CBxxaaaarrw66r",
"arrraa999aaaaa4aaoooooooooooooooooooooooooooooooooooooouziBu99r00aaaa00r",
"arrruuuaaaaajuuujo%$$$%&+oooooooooooooooooooooo+%$%%%%ouggl9wwr00aaaaaar",
"arrruuuaaaaajuuuj24:,,iZzoooooooooooooooooooooorw;44pfdqggl9wwr00aaaaaar",
"aaaaNNMaaajjZkhhVllarryVZo&%%%%%&%%%%%%%%%%$$$oa<5aaaaaa99wwwwaaaarrraaa",
"akkvgguaaauuCBllMhharr9kVVbuuzllhuu0auuvzza00aaarwaaaaa000r<66aaaukkhaa0",
"akkvgguaaauuCBllMhharr9kVVbuuzllhuu0auuvzza00aaarwaaaaa000r<66aaaukkhaa0",
"hBBZ999aaayyxVBByaa9rrravvluukmmrww<9ggblljhhuaaaahhuaar0096--aaajBBvhh9",
"VVVVuuaaarrruvvv0rrrwwrauuyrrauuarr50aaukkNVVlaaauVVzaaaaa96--r00auukVVh",
"VVVVuuaaarrruvvv0rrrwwrauuyrrauuarr50aaukkNVVlaaauVVzaaaaa96--r00auukVVh",
"CNNvaaaaa000azzz0rrr<<waaaa009aa9rr<raaahhvCClaagkBBhaarrr0<<<r009aazVVh",
"Nggarr0aaaaaarrraaa966<auuuaaaaawrrarrraaaaBBMaamVaaaaa666reaaa00raahNNg",
"Nggarr0aaaaaarrraaa966<auuuaaaaawrrarrraaaaBBMaamVaaaaa666reaaa00raahNNg",
"guuaaa0rraaarrrra99rrr0axxvuu9rrwrrarrraeerggarruhrrrrrr009rrraaa0rr0aaa"
};
