/* XPM */
static char *result[] = {
/* columns rows colors chars-per-pixel */
"72 72 63 1 ",
"  c #14182E",
". c #511222",
"X c red",
"o c #8C8361",
"O c #8E8462",
"+ c #8E8562",
"@ c #8F8563",
"# c #8F8663",
"$ c #8F8664",
"% c #908664",
"& c #908764",
"* c #918764",
"= c #686F99",
"- c #D8C999",
"; c #D9C999",
": c #D9CB99",
"> c #D9CA9A",
", c #DACA9A",
"< c #DBCB9B",
"1 c #DACC98",
"2 c #DACC99",
"3 c #DBCC99",
"4 c #DACD99",
"5 c #D9CD9A",
"6 c #DACC9A",
"7 c #DBCD9B",
"8 c #DBCE9B",
"9 c #DDCD9B",
"0 c #DDCF9B",
"q c #DFCE9A",
"w c #DECE9B",
"e c #DCCC9C",
"r c #DDCD9D",
"t c #DCCE9C",
"y c #DDCF9D",
"u c #DECE9C",
"i c #DFCF9C",
"p c #DED09A",
"a c #DFD19A",
"s c #DED09C",
"d c #DFD29C",
"f c #E1D099",
"g c #E1D199",
"h c #E1D19C",
"j c #E0D09D",
"k c #E1D29C",
"l c #E2D29D",
"z c #E3D29D",
"x c #E2D39D",
"c c #E4D19C",
"v c #E5D29C",
"b c #E4D39C",
"n c #E5D29D",
"m c #E6D39D",
"M c #E4D39E",
"N c #E3D49D",
"B c #E5D49C",
"V c #E5D49D",
"C c #E6D59D",
"Z c #E6D69D",
"A c #E6D69E",
"S c #A3A7C2",
"D c #DFE0E8",
/* pixels */
"s00trr999ttt9skkMzzhiisutttssssst00sstt6eesee0ss0tsssssNNNjissjiisww999t",
"ssssttettssse9ssiNNBkkxAiisssssssssstttssssee0ss<6ssssstiiCjssANNsttett9",
"ssssttettssse9ssiNNBkkxAiisssssssssstttssssee0ss<6ssssstiiCjssANNsttett9",
"tttteet99ssse9sstuujiiilee<99y00shhMisssrrt99ssse<ssssst99xissluut999990",
"eeettt9iissst999t00wssss666000ttsjjZhsssrrtsssssttssssstttssssstttssiii0",
"eeettt9iissst999t00wssss666000ttsjjZhsssrrtsssssttssssstttssssstttssiii0",
"e00ssshzzisssttt9ee8009t556000ttshhChsstjjVtt9sssrtt9sssssstttsee<wwjVVi",
"0jjNllllliss0000stte999e<<ess900siiNs000iib00illNl00000syyeeee0eee00hmmb",
"0jjNllllliss0000stte999e<<ess900siiNs000iib00illNl00000syyeeee0eee00hmmb",
"iVVACCNssssse9ssssssss9esssssssssssstttsssssslCCZmssteestt:<eee00sttuCCZ",
"iVVAjjissssse9hhnCCnhhssssiVVlssssssstt6eestt9iicvssznnitt:<ees<<<00skkB",
"iVVAjjissssse9hhnCCnhhssssiVVlssssssstt6eestt9iicvssznnitt:<ees<<<00skkB",
"ibbCiisss000t0iiVmmCllisiijVVx00ssssstt-<<stt0ssNbiibnndtt6ettsee8wwsiiN",
"siikss0ee688st00izzCCCbsVVVjje66tttstee-88tsssssihBBirrttt0ssssttesssssr",
"see<ssstt>>>00000iiNnnz0CCC                  9sssslls000000ssssss0000000",
"see<ssstt>>>00000iiNnnz0CCC                  9sssslls000000ssssss0000000",
"s66-wws00655e9sst00iccNennn                  0ssssssssss99tssssssstteee9",
"e99stt0sstttssssteeeeeee   SSSDDDDDDDDDDDDSSS   <tssteesxxBksssbbniissst",
"e99stt0sstttssssteeeeeee   SSSDDDDDDDDDDDDSSS   <tssteesxxBksssbbniissst",
"t999tt099suujisstttteett   SSSDDDDDDDDDDDDSSS   <tss0ttshhbljj9llziisss0",
"sttess099bCCAxsssssst   SSSDDDDDDDDDDDDDDDDDDSSS   sssssssinAAetttssssss",
"sttess099bCCAxsssssst   SSSDDDDDDDDDDDDDDDDDDSSS   sssssssinAAetttssssss",
"t<<6tt0ssjllCVzzillbi   SSSDDDDDDDDDDDDDDDDDDSSS   s0ttsssdjll9990ttttts",
"e66-ee0sssiibCCCxzzVk   SSSDDDDDDDDDDDDDDDDDDSSS   steesssssssw00teettts",
"e66-wwsssssssbCCAzzss   SSSDDDDDDDDDDDDDDDDDDSSS   stees99tssse66>eetsss",
"e66-wwsssssssbCCAzzss   ===SSSDDDDDDDDDDDDSSS===   stees99tssse66>eetsss",
"t<<600sss999sjzzclls9   ===SSSDDDDDDDDDDDDSSS===   90tt0tt<t99tee<tt0sss",
"stteee0sstttstttsssst   ===SSSDDDDDDDDDDDDSSS===   e9sst<<:<eessssssssss",
"stteee0sstttstttsssst   SSS   SSSDDDDDDSSS   SSS   e9sst<<:<eessssssssss",
"sttessssstttst<<6eess   SSS   SSSDDDDDDSSS   SSS   sNBBiss0teessshCCbsst",
"s00tjjkss099lsee:<<9s   SSS   SSSDDDDDDSSS   SSS   slbbxxxj9ttshhzCCbss0",
"s00tjjkss099lsee:<<9s   SSS......SSSSSS......SSS   slbbxxxj9ttshhzCCbss0",
"ssssmmbssskkAl005<<ts   SSS......SSSSSS......SSS   ssssBCCCjsssbbACCbsss",
"0sssllzzzikkAlrrettrx   SSS......SSSSSS......SSS   ssssxbbCcbbszznNNhss9",
"0sssllzzzikkAlrrettrx   SSS...XXXDDDDDDXXX...SSS   ssssxbbCcbbszznNNhss9",
"e99sssNCCkkkAlsssssic   SSS...XXXDDDDDDXXX...SSS   sssssxxCAAAsNNciissst",
"sttess0ttssssssst00ss   SSS...XXXDDDDDDXXX...SSS   stees99tbCCs00tsst::t",
"sttesss00swwet000rrsssxZ   SSSDDD======DDDSSS   e<ss900sss9xNNs99000t<<0",
"sttesss00swwet000rrsssxZ   SSSDDD======DDDSSS   e<ss900sss9xNNs99000t<<0",
"sttessssss00-<ttssssssjC   SSSDDD======DDDSSS   ttsssssssssssssssstttsss",
"sss9ssxbbisst000trrss      DDD   DDDDDD   DDD      ssss000sssstrrs99wsse",
"sss9ssxbbisst000trrss      DDD   DDDDDD   DDD      ssss000sssstrrs99wsse",
"siiiiiNnnissss99ettss      DDD   DDDDDD   DDD      idsstttsswwe00siiiss<",
"iVVACCNssssse9005e   DDDDDD                  DDDDDD   ss99e>--e00kBBbsss",
"iVVACCNssssse9005e   DDDDDD                  DDDDDD   ss99e>--e00kBBbsss",
"VCCClliss0tte9005e   DDDDDD                  DDDDDD   st0006--9ssihhlcch",
"ACCCiisssteee90   DDD===   SSSDDD======DDDSSS   ===DDD   t96--sssssslAAj",
"ACCCiisssteee90   DDD===   SSSDDD======DDDSSS   ===DDD   t96--sssssslAAj",
"Cllhsssssswwws9   DDD===   SSSDDD======DDDSSS   ===DDD   0tt00ttttssxCCj",
"zii9sssrrssssjj   DDDDDD      ===SSSSSS===      DDDDDD   ttsssteeesshzzi",
"sttess0ttssssVn   DDDDDD      ===SSSSSS===      DDDDDD   6tssss77699ssst",
"sttess0ttssssVn   DDDDDD      ===SSSSSS===      DDDDDD   6tssss77699ssst",
"t999sss99tttsbBBil         SSSSSS      SSSSSS         st00wssss00ttt0sss",
"e99sssssstttsbcciz         SSSSSS      SSSSSS         sssssssssssstttsss",
"e99sssssstttsbcciq         SSSSSS      SSSSSS         2ssssssssssstttsss",
"s66-wwe55ettssssto$$%%%&+oo      oooooo      oo+&%%%$$osssinAAssssss9ee9",
"see<00<>>t00sr100oooooooooo      oooooo      oooooooooosi3zCZZssss00t<<0",
"see<00<>>t00sr&@Ooooooooooo      oooooo      oooooooooo+@*zCZZssss00t<<0",
"sssstt<<<9sss0&@+ooooooooooooooooooooooooooooooooooooooO#*ZVccsssstte66t",
"stttss999sssss4ssooooooooooooooooooooooooooooooooooooooixpVi99t00ssss00t",
"stttiiissssskiiiko%$$$%&+oooooooooooooooooooooo+%$%%%%oihhz9eet00sssssst",
"stttiiissssskiiik24:,,pAxoooooooooooooooooooooote;44agfwhhz9eet00sssssst",
"ssssBBNssskkAljjCzzsttuCAo&%%%%%&%%%%%%%%%%$$$os<5ssssss99eeeesssstttsss",
"sllbhhisssiiZVzzNjjstt9lCCniixzzjii0siibxxs00ssstesssss000t<66sssilljss0",
"sllbhhisssiiZVzzNjjstt9lCCniixzzjii0siibxxs00ssstesssss000t<66sssilljss0",
"jVVA999sssuucCVVuss9tttsbbziilMMtee<9hhnzzkjjissssjjisst0096--ssskVVbjj9",
"CCCCiissstttibbb0ttteetsiiuttsiistt50ssillBCCzsssiCCxsssss96--t00siilCCj",
"CCCCiissstttibbb0ttteetsiiuttsiistt50ssillBCCzsssiCCxsssss96--t00siilCCj",
"ZBBbsssss000sxxx0ttt<<essss009ss9tt<tsssjjbZZzsshlVVjssttt0<<<t009ssxCCj",
"Bhhstt0sssssstttsss966<siiisssssettstttssssVVNssMCsssss666trsss00tssjBBh",
"Bhhstt0sssssstttsss966<siiisssssettstttssssVVNssMCsssss666trsss00tssjBBh",
"hiisss0ttssstttts99ttt0sccbii9ttettstttsrrthhsttijtttttt009tttsss0tt0sss"
};
