/* XPM */
static char *result[] = {
/* columns rows colors chars-per-pixel */
"72 72 78 1 ",
"  c #1F224A",
". c #373854",
"X c #495D9A",
"o c #2C87C1",
"O c #2CACE4",
"+ c #5FC7FA",
"@ c #6AC9F5",
"# c #B3A789",
"$ c #B4A989",
"% c #B5A98B",
"& c #B4AA8A",
"* c #B4AB8A",
"= c #B6AA8B",
"- c #B6AB8B",
"; c #B7AB8B",
": c #B7AC8B",
"> c #B7AD8B",
", c #B7AB8C",
"< c #B8AC8B",
"1 c #B8AE8B",
"2 c #BAAE8B",
"3 c #BCAE8B",
"4 c #BCAF8B",
"5 c #B9AD8C",
"6 c #BAAE8C",
"7 c #BBAE8C",
"8 c #BAAF8C",
"9 c #BDAE8C",
"0 c #BEAF8C",
"q c #BDB08B",
"w c #BBB08C",
"e c #BDB08C",
"r c #BEB18C",
"t c #BEB18D",
"y c #D8C999",
"u c #D9CB99",
"i c #D9CA9A",
"p c #DBCB9B",
"a c #D9CD9A",
"s c #DACC9A",
"d c #DBCE9B",
"f c #DCCC9A",
"g c #DDCD9B",
"h c #DDCF9B",
"j c #DECE9B",
"k c #DCCC9C",
"l c #DDCD9D",
"z c #DCCE9C",
"x c #DDCF9D",
"c c #DECE9C",
"v c #DFCF9C",
"b c #DED09C",
"n c #DFD29C",
"m c #E1D19C",
"M c #E0D09D",
"N c #E1D29C",
"B c #E2D29D",
"V c #E3D29D",
"C c #E2D39D",
"Z c #E4D19C",
"A c #E5D29C",
"S c #E4D39C",
"D c #E5D29D",
"F c #E6D39D",
"G c #E4D39E",
"H c #E3D49D",
"J c #E5D49C",
"K c #E5D49D",
"L c #E6D59D",
"P c #E6D69D",
"I c #E6D69E",
"U c #92DBFF",
"Y c #9EDEFD",
"T c #A4E0FF",
"R c #B6E7FE",
"E c #F4E6CC",
"W c #C6ECFF",
"Q c white",
/* pixels */
"bhhzllgggzzzgbNNGVVmvvbczzzbbbbbzhhbbzzskkbkkhbbhzbbbbbHHHMvbbMvvbjjgggz",
"bbbbzzkzzbbbkgbbvHHJNNCIvvbbbbbbbbbbzzzbbbbkkhbbpsbbbbbzvvLMbbIHHbzzkzzg",
"bbbbzzkzzbbbkgbbvHHJNNCIvvbbbbbbbbbbzzzbbbbkkhbbpsbbbbbzvvLMbbIHHbzzkzzg",
"zzzzkkzggbbbkgbbzccMvvvBkkpggxhhbmmGvbbbllzggbbbkpbbbbbzggCvbbBcczgggggh",
"kkkzzzgvvbbbzgggzhhjbbbbssshhhzzbMMPmbbbllzbbbbbzzbbbbbzzzbbbbbzzzbbvvvh",
"kkkzzzgvvbbbzgggzhhjbbbbssshhhzzbMMPmbbbllzbbbbbzzbbbbbzzzbbbbbzzzbbvvvh",
"khhbbbmVVvbbbzzzgkkdhhgzaashhhzzbmmLmbbzMMKzzgbbblzzgbbbbbbzzzbkkpjjMKKv",
"hMMHBBBBBvbbhhhhbzzkgggkppkbbghhbvvHbhhhvvShhvBBHBhhhhhbxxkkkkhkkkhhmFFS",
"hMMHBBBBBvbbhhhhbzzkgggkppkbbghhbvvHbhhhvvShhvBBHBhhhhhbxxkkkkhkkkhhmFFS",
"vKKILLHbbbbbkgbbbbbbbbgkbbbbbbbbbbbbzzzbbbbbbBLLPFbbzkkbzzupkkkhhbzzcLLP",
"vKKIMMvbbbbbkgmmDLLDmmbbbbvKKBbbbbbbbzzskkbzzgvvZAbbVDDvzzupkkbppphhbNNJ",
"vKKIMMvbbbbbkgmmDLLDmmbbbbvKKBbbbbbbbzzskkbzzgvvZAbbVDDvzzupkkbppphhbNNJ",
"vSSLvvbbbhhhzhvvKFFLB6<>vvMKKChhbbbbbzzyppbzzhbbHSv<49DnzzskzzbkkdjjbvvH",
"bvvNbbhkksddbzhhvVVLLr4>KKKMMksszzzbzkkyddzbbbbbvmJq<,lzzzhbbbbzzkbbbbbl",
"bkkpbbbzziiihhhhhvvHD97:LLLccpaahhhhhzzkkkkhhgbbbbB6>:hhhhhbbbbbbhhhhhhh",
"bkkpbbbzziii:::hhv<w9DVhrrr;;%**:::::--====::;>>>>6Bbh:::hhb>>>bbhhhhhhh",
"bssyjjbhhsaa=;>bzh:<3ZHk999,,&**>;;=;>>>::===:>>>>>bbb>>;gzb>>>bbbzzkkkg",
"kggbzzhbbzzz>>>bzk===kkk>>>>>:===%%$:;;=::>>>=##%->bzk=>8CJN>>>SSDvvbbbz",
"kggbzzhbbzzzbbb>-=kkk===>>>...   ...   ...   =##%->>-==>88q2bbbSSDvvbbbz",
"zgggzzhggbccMvb>--zzk=-->>>...   ...   ...   %##%->>:-->2246MMgBBV<<>bbh",
"bzzkbbhggSLLICb>>>bbz-->>>>...   ...   ...   %##->>>>>>>>><9IIkzzz>>>bbb",
"bzzkbb:;;SLLt8>bbb>>--->>>>   oooOOO@@@YYYYYY   ...   ...><9tt=--->>>bbb",
"zppszz:>>MBBre7VvB64<<>>:::   oooOOO@@@YYYYYY   ...   ...>1566;;;:zzzzzb",
"kssykk:>>bvv4rrLCV7e22>;---   oooOOO@@@YYYYYY   ...   ...>>>>>;::-kkzzzb",
"kssyjjbbb>>>>4rrt7   ...      XXXXXXOOOOOOOOO@@@RRRQQQUUU   bbkssikkzbbb",
"kssyjjbbb>>>>4rrt7   ...      XXXXXXOOOOOOOOO@@@RRRQQQUUU   bbkssikkzbbb",
"zppshhbbb;;;>57736   ...      XXXXXXOOOOOOOOO@@@RRRQQQUUU   ggzkkpzzhbbb",
"bzzkkk:>>---   ...oooUUUOOOOOOTTTWWWQQQQQQ+++oooXXX...   %$%kkbEEEbbbbbb",
"bzzkkk:>>---   ...oooUUUOOOOOOTTTWWWQQQQQQ+++oooXXX...   %$%kkbEEEbbbbbb",
"bzzkbb>>>---   ...oooUUUOOOOOOTTTWWWQQQQQQ+++oooXXX...   >:-kkbEEELLSbbz",
"bhh-55Nbb...OOOUUUOOO+++TTTTTTWWWUUUUUUUUUQQQQQQ   >64EEE85;EEEmmVLLSbbh",
"bhh-55Nbb...OOOUUUOOO+++TTTTTTWWWUUUUUUUUUQQQQQQ   >64EEE85;EEEmmVLLSbbh",
"bbb>00Sbb...OOOUUUOOO+++TTTTTTWWWUUUUUUUUUQQQQQQ   >>>EEErr5EEESSILLSbbb",
"hbbbBB   XXXOOOTTTTTTUUUOOOOOOOOOOOOUUUUUU+++UUUQQQ...>84EEE44>EEEHHmbbg",
"hbbbBB   XXXOOOTTTTTTUUUOOOOOOOOOOOOUUUUUU+++UUUQQQ...>84EEE44>EEEHHmbbg",
"kggbbb   XXXOOOTTTTTTUUUOOOOOOOOOOOOUUUUUU+++UUUQQQ...>>8EEEtt>EEEvvbbbz",
"bzzkbb:--...XXXXXXoooOOOOOOUUUOOOUUUTTTTTTUUUUUUUUUTTT   ...LLb::-EEEuuz",
"bzzkbb>::...XXXXXXoooOOOOOOUUUOOOUUUTTTTTTUUUUUUUUUTTT   ...HHb;;:EEEpph",
"bzzkbb>::...XXXXXXoooOOOOOOUUUOOOUUUTTTTTTUUUUUUUUUTTT   ...HHb;;:EEEpph",
"bzzkbbbbb>::   ...XXXXXXXXXoooTTTTTTOOOTTTQQQQQQUUUUUUUUUQQQ   ...zzzbbb",
"bbbgbbCSS<>>   ...XXXXXXXXXoooTTTTTTOOOTTTQQQQQQUUUUUUUUUQQQ   ...ggjbbk",
"bbbgbbCSS<>>   ...XXXXXXXXXoooTTTTTTOOOTTTQQQQQQUUUUUUUUUQQQ   ...ggjbbk",
"bvvvvvHDDvbb>>;;=-   ...   XXXoooOOOOOOWWWTTTOOOQQQQQQOOOOOOOOOooo   bbp",
"vKKILLHbbbbb=;::*=   ...   XXXoooOOOOOOWWWTTTOOOQQQQQQOOOOOOOOOooo   bbb",
"vKKILLHbbbbb=;::*=   ...   XXXoooOOOOOOWWWTTTOOOQQQQQQOOOOOOOOOooo   bbb",
"KLLLBBvbb:--kgh:*=kjpppzbbb   XXXXXXooooooooooooOOOOOOOOOoooXXX   ...ZZm",
"ILLLvvbbb-==kgh:*=kgssskbbb   XXXXXXooooooooooooOOOOOOOOOoooXXX   ...IIM",
"ILLLvvbbb-==kgh:*=kgssskbbb   XXXXXXooooooooooooOOOOOOOOOoooXXX   ...IIM",
"LBBmbbbbbbjj;>;gkzzbhhhjEEEbbH      XXXXXXXXXXXXXXXXXXXXXXXX   ...EEELLM",
"Vvvgbbbllbbb>55MhllbllbbEEEbbV      XXXXXXXXXXXXXXXXXXXXXXXX   ...EEEVVv",
"bzzkbbhzzbbb>e9DvbbbzzzbEEEbbH      XXXXXXXXXXXXXXXXXXXXXXXX   ...EEEbbz",
"bzzkbbhzzbbbbKDDvbbbzEEEEEEEEEEEEee1   ...   ...   ...   ...EEEEEEggbbbz",
"zgggbbbggzzzbSJJvBBZvEEEEEEEEEEEE44:   ...   ...   ...   ...EEEEEEzzhbbb",
"kggbbbbbbzzzbSZZvVVLMEEEEEEEEEEEE77-   ...   ...   ...   ...EEEEEEzzzbbb",
"kggbbbbbbzzzbSZZvVEEEMgkbbbbbbEEEVVzEEEkhhEEEhbbEEEbbbEEEEEEEEEbbbzzzbbb",
"bssyjjkaakzzbbbbzkEEEbbbssakkhEEEbbbEEEbbbEEEbbbEEEbzkEEEEEEEEEbbbbbgkkg",
"bkkphhpiizhhblhhhhEEEhlbkkfzzhEEEbbbEEEkzzEEEbbbEEEBCMEEEEEEEEEbbbhhzpph",
"bkkphhpiizhhblhhhhhhhhlbkkfEEEhhbbbbhzzEEEhbbEEEBVBEEEMbvEEEPPbEEEhhzpph",
"bbbbzzpppgbbbhzzbbbjzzgNbbbEEEzzbbbbzkkEEEzbbEEEbbJEEEIvCEEEZZbEEEzzkssz",
"bzzzbbgggbbbbbbbbhhzggMLvvbEEEbbbbbbzzzEEEbbbEEEzzvEEELvCEEEggzEEEbbbhhz",
"bzzzvvvbbbbbNvvvNbbzllCICCvbbbbbNvvbzzzbbbbbbhzzkkbbHJJvmmVgkkzhhbbbbbbz",
"bzzzvvvbbbbbNvvvNbbzllCICCvbbbbbNvvbzzzbbbbbbhzzkkbbHJJvmmVgkkzhhbbbbbbz",
"bbbbJJHbbbNNIBMMLVVbzzcLIILNNbvvIKKvbbbbbbbkkhbbpabbbbbbggkkkkbbbbzzzbbb",
"bBBSmmvbbbvvPKVVHMMbzzgBLLDvvCVVMvvhbvvSCCbhhbbbzkbbbbbhhhzpssbbbvBBMbbh",
"bBBSmmvbbbvvPKVVHMMbzzgBLLDvvCVVMvvhbvvSCCbhhbbbzkbbbbbhhhzpssbbbvBBMbbh",
"MKKIgggbbbccZLKKcbbgzzzbSSVvvBGGzkkpgmmDVVNMMvbbbbMMvbbzhhgsyybbbNKKSMMg",
"LLLLvvbbbzzzvSSShzzzkkzbvvczzbvvbzzahbbvBBJLLVbbbvLLCbbbbbgsyyzhhbvvBLLM",
"LLLLvvbbbzzzvSSShzzzkkzbvvczzbvvbzzahbbvBBJLLVbbbvLLCbbbbbgsyyzhhbvvBLLM",
"PJJSbbbbbhhhbCCChzzzppkbbbbhhgbbgzzpzbbbMMSPPVbbmBKKMbbzzzhpppzhhgbbCLLM",
"JmmbzzhbbbbbbzzzbbbgsspbvvvbbbbbkzzbzzzbbbbKKHbbGLbbbbbssszlbbbhhzbbMJJm",
"JmmbzzhbbbbbbzzzbbbgsspbvvvbbbbbkzzbzzzbbbbKKHbbGLbbbbbssszlbbbhhzbbMJJm",
"mvvbbbhzzbbbzzzzbggzzzhbZZSvvgzzkzzbzzzbllzmmbzzvMzzzzzzhhgzzzbbbhzzhbbb"
};
