/* XPM */
static char *ae55aed6e1f44810c619e393390b5803VKsS9KlkGbn7foq5[] = {
/* columns rows colors chars-per-pixel */
"72 72 38 1 ",
"  c #D8C999",
". c #D9CB99",
"X c #D9CA9A",
"o c #DBCB9B",
"O c #D9CD9A",
"+ c #DACC9A",
"@ c #DBCD9B",
"# c #DBCE9B",
"$ c #DCCC9A",
"% c #DDCD9B",
"& c #DDCF9B",
"* c #DECE9B",
"= c #DCCC9C",
"- c #DDCD9D",
"; c #DCCE9C",
": c #DDCF9D",
"> c #DECE9C",
", c #DFCF9C",
"< c #DED09C",
"1 c #DFD29C",
"2 c #E1D19C",
"3 c #E0D09D",
"4 c #E1D29C",
"5 c #E2D29D",
"6 c #E3D29D",
"7 c #E2D39D",
"8 c #E4D19C",
"9 c #E5D29C",
"0 c #E4D39C",
"q c #E5D29D",
"w c #E6D39D",
"e c #E4D39E",
"r c #E3D49D",
"t c #E5D49C",
"y c #E5D49D",
"u c #E6D59D",
"i c #E6D69D",
"p c #E6D69E",
/* pixels */
"<&&;;=3o&;;;&;62w666&;<<;;;;;<<<;<&<<;;+;=3==&<<&;<<<<<yrr6;3&<3<<&&o&o;",
"<<<<;;==&3<<=&<&&66y26ry6;<<&6<<<<<<;;;<;3;;=&&6o+<<<<<;;<i;;6y666&;=;;&",
"<<<<;;=;;&;<=&<<3www22ry*3<<3&;;<<<<;;;<3;3==&&;o+<<<<<;6*y6<<pyw;;+=;;*",
";;;;==;&o36&=&<<;;&3<<<6==o&&;<&<22w;<<<;=;;&33&;o<<<<<;&ow;<<6<;;;&o&o*",
";==;;;o;6<<<;&o*;&&*<<3&o++&&&;;<<6y6<<<3=;;<<<<;;<<<<<;;;<<<<<;;;363;*&",
"==;;;;&&&<<<;o*o;&&&<<&3+++&&&;;<6<y2<<<;;;3<<<<;;<<<<<;;;<<<<<;;;&;*&6&",
"=&&<;<666;&;3;;;&==&&&o;+++<&&&;<66y2<<+6;w&;&<<;;;;&;6;<<;;;;<;=o&&3wy<",
"&3366666636&&&&*;;==&&&=+o;;<&&&<;&r<&<<&<6&<;66y6;&&&&&;<===;;o=o&&6wyt",
";6<y66666&<<<&&&<;;;&oo=oo;&&&&&<3&w<<<<<&w&<*w6r6&&&&<;<;;oo=;=o;&&6wyt",
";yypyyr<6;<<&o6;<<<<6;&;<<;6;<<<<<<<;;+<<<<<;6yyyw<<;=&;;; o;=;;&3;;&wyy",
"3wyp<66;&<<<oo22wyyw22&<<<;yy6<<<<<<<;+o=;<+=o;&w86;www&;;;o==;ooo&&;22t",
";yyp<<;<;<<<;&22wyyw22<<<<<yy6<<<<<<<;;o=;<;&&3688;;68w3;;oo=o6ooo&&622t",
"6w2y<;6<<<&&;&3*wwwy6w3;3&6ww6<&<<<<<;; oo6+;<<<rt&3ww6<;;o;;;<;o;&&6;;w",
";322<<&o++++;;&&;wwyyi8;wyy;3=++;;;<;;oo+;;;<<<;<2t83;=;;+&<;<;;;;;<&;6=",
";=&o<<<;;oo &&&&&&<6ww6&iiy;;;++&&&&&;;=;==&&&;&<<66<&&&<&&<<<6&<&&&&&&&",
"<=oo<<<;+ooo&&&&&3&6w6w&iiy3;+O+&&&&&;;o===;&&;6<<66<&&&&&&<<<<<<&&&&&&&",
"<+oo&&&&&o++;;<<;&;38w6owww;;o++&&&o&&6;&&=;o&;&<<<<3&<6&o<<<<<<&<;;;=;&",
";;&*&o&;3;&+<<<<;;==o;==<<;<<;==ooo &&&=&&;<;oo +;<<;=;;6600<<<02w3*6;;;",
"=o*3;;&6;;;;<;6<;o======<<<<<&==oooo&*&;&&&<<;  +;<<;=;<6r0<<<<06w3;&<<&",
";&o*;+&&&&3*6;&<;;;;==;;<<<<<&;;=ooo&3<;&&3o&o  o;<<;;;<22066<+66w*&;<<<",
";;&o;<&&&8yiy6<<<<<<;;;;<<<<<<<<====&&6<6<<;=oo ;<<<<<<<<<;wyp;;;;;6<<<<",
"<;&o6;&&&2yypr<<<<<<;;;<<;<<<<<;====&<&;&;;=;o  ;<<<<<<<<&3wyp;;;;3&<<<<",
";ooo;;&;<66ryyw6<662;&<<&&&<<<;;o&&o<<<6666&;<;;;<<<&;;<<<6<66;;&&;;;;;<",
";+oo=;&;<<<<yyii66wy626&;;&<<&;&&6*3<22w666&<<<<;;<<&o;;<<<;&3&;&;=;;;;<",
"=o+ **36&<<<<wyyy66<6&&=;<<<<<<<o;;<<<<<rry<<<<<<<6*;=;<&&;;36o+o +;;;<<",
"=o+ &&&;;<<<&6yypr6<;;o=6&<<<<<<=;;<<<<<rrp<<<<<<;&3;==<&o;&&;;+oo;o;<<<",
";oo+;&<<3o&&<666666<&&&;<<;62<<<;;6y<;;<rry<<<6r;&&o&;;&;;o&o&;=;o;&;<<<",
"<;;+;+&<&;;;;;;;<<<<;;;<<<*ty6<<;6;y<;;<6ry<<ryp3===&;<;oooo=;<;<<<<<<<<",
"<;;===<<6+;;;;;;<<;;;;;<<<38t6&;;3<y<;;366y<<yyy*;==&<<;oooo==3&<<<<<<<<",
"<;;;6;<<<;=&3;oo++&&&6<<<<&3&6ww;3;w;;;;<<6+;;<63&&3rtt&&&&;==&3<2yyw<<;",
"<&&;;66;<<&&6<;=ooo&<<<<&*;3<6wt;6<w3;;;<<;=;&;<;&;6<r6r663&;;<62wyy2<<&",
"<&&;6;6&<;&o6&==ooo+<<<<**;3<62t;;;w&;;&<<<==&&6;&<&6006r63&;;&22yiyt<<&",
"<<<<wy6<<<<6y63;o==;<<<<;;&<<<<<<<6&;&&o&&<;o;;6+;<<<<<yyyi6<<<02yyyy<<<",
"<<<<66666<0ryw;;o;;;r6r<o&&<<&<+<<;&<&&&<<<&&&&&oo<<<<<6tty8t0<66wyy2<<&",
"&<<<66666<6<p6;;=;;;61r<&o<<<&<<<;<&&&&&<<&&&&&&o;<<<<<yt2y80y<66wrw2<<+",
"o&+<<<yyy2<6p6<<<;&226r<&3<;&&;+<&&==;&3<<<6<&;=o+<<<<<;6rypyy<r6w&3<<<<",
";;;;<<<&<<<<;6&;;&&;<<6p62&<<<<<===;&;3&;=o;<<<<oO<<;;&;&&&2yp<<&;;;+ o;",
"<;;=<<<&<<&&=;&&<;;6<<6y*6;662<<;;;o;&&6;;o;<<<<oo<<&&<<;;&6yr<&&&&&;oo&",
";;;=<<&&&&&&o&&&&;;;<<ry6*6666<<&;;+&<&&;;=<<<<<;o;<o&&<3&&6rr<&&&&<;+o&",
"6;;=<<;6;&&&oo;;;6;3<;6y&<<yyy<<;;+oo;;;<<;<<<<<;;<<;6&;<<<<<<<&<<;;;<6;",
"&<<;6<rw82<<&&&&;;;3;<<6&&&33&<<;==o;o&*y6y<<<<<;&<<<<<&&&;6&<;;;;&**3<;",
"<<;+&;r226<<;&&*;;;;6;;r&<&333<<;;oo;&o36ry<<<<<6;<<<<<&&&&3<<;;&<o**&;o",
"<6&6*<rww;<<;;&o=;;6<<<<;;;;&;3&&o&o&&&3rry<<<<<&<<<6<<;;;;&o&=;<<;&36&&",
";ywyyyr<<<<<;&&&+==;;;;<;&6;;&&3&&&&3**=<6yyyw<<<;yy6<<<&&=ooo;;<2yt8&;<",
"3wyiiyr<&;<<=o&&+==;;;;;<<<;&<<<<<&3&&*=<;yyyy<<<&yi6&<<&&o   o&<6tty;<;",
"wiiiw6<<6&;;=&&&+==&;oo;<<<&&<<<<<3;3**=&36iy6;;6y;63;<;&&&o  &*<<226666",
"yyyy&6<<&;===&&&+;o&++&o<<<<&<<<<&o=&**=&&&yy6oowi;=o&;;;;&o  **<<<<6yp6",
"iyyw3;<<3;===o&&+;o&+oo=<<<<<<<<<&&o&**o&&3yi6;owy==&6;;;;&+  &6<<<<ryy<",
"i66<<<<;6;;**6&o;;;3&&&&;;;3<ryy<<<<<;<;&&;&&;*&&6&&;;;&&&;;<<+;;;<<6yy6",
"y6;&<<<;;<<<6;33;;;3;=&3&&&&<ryy6<6<<336*3;;;&3<;&3*&;;;;;;<<<;;oo<<6w6<",
";;;=<<&;;<<<&www&;<;;;;;<<<<<ryyyyy<6<3yw6<<;3<<;;&;<<<+o++<<<<+&oo&<<<;",
"6;;=<;&;;<<<<w3w6<<&;;;3<<<<<yyyyyy<<66i66<&3&<&;;&6<<<+o+;<<<<;oo&&<<<+",
"+;o*3&<&&;;;<2tt366w*3&;<<<<<;66yry&66t;;;3&;&;3;<<<<<<;&<;<<<<&&;;;&<<<",
"=&&&&3&6;;;;<w88;66y33&=<<&6<<3&pyw+yyy+&&;==&3&<<<<<<<<<<<<<<<<<<;;;<<<",
"=&&&<3&;<;;;<t88;wwy33;=<<<;<;66y66;yyw;&&;;;&<<<6&<<;6<<<;<<<<<&<;;;<;<",
";oo &*;++;;&<<<<;=o&3;;6+++;;&&;<<<<&6;<&3&3<<<<yy;<;;o<<<6yyy<<3&3;&;=&",
";==o&&o o+&&<;;3&&&&&&;;==+;;&&&<<<<<;;;;;&<<<<<<666w;6<&36yyi<<<<&&;oo&",
"3==&&&ooo;&&<;&&&&&&&&;&=o&;;&&&<<<<<+;;;;&<<<<<666666;;3*rypp<<<<&&;oo&",
"&6;;;;ooo&;<<&&;<<<;+;&6;<<<<&;;<<<<;;oooo+<<<<<<<ryyyi666yy82<<<<;;;++;",
"<+;&3;&&&;3&<&3;<<;;;&3w*3<<<<<<<<<<;;;;&;<<<&;;;;6<yyy*6ry<&&<<&<<<;&&;",
"<;;;*3*<<<<<6*6&6<<;-;yi6r;<<<<<6*3<;;;;<<<<<;;;;o<<rtt322woo&;&&<<<<<<;",
"<;;;3&3&<<<<2<3;6<<;-;6ir66<<<<<23*&;;;<<<<<<<;;;o<<ryt&23w;oo;&<<<<<<<+",
"<<<<ttr<<<62y633y666;;;iyyy26&6;yyy3;&<<<<;&;&<<o+<<<<;&&o;==&3&<<;;;<<<",
"<66w22<<<<<<yw6wp3;;;;;yyyw&&666<6&<<6*y663&<;<;;;<<<&6&&&+ooo&3<;666<<<",
"<6w666&;<<<6yy66r63;;;;6wyw&3w6633*&;3&w66<+;;<<;;<<<<<&&&;oo+<<<&66<;<<",
"<ryi&o&<<<;;8yyy&;;&;;;3t8w3&36w;;=o&26w66<66<<<6;<63&<;&&&o o<<<2ww66;&",
"yyii;&;6<;;;28tt<;;;==;<<&;;;&;3<;;+&3&*6ryyyr<<&6yy6<<<;<&o  +<<<&&wyy6",
"yyii36;&<;;;&w2t&;;;=;;<*6;;;3;3<;;+&*<36rtyyw<<<;yyr<<<&&&o  +<&<*66yy3",
"yttw&3&<<<+<<6rr&&&;ooo;<<<&&&&;&;;o;<<<<66ypr<<66yy<<<;&+<=oo;&&&<<ryy6",
"t22<;;&<<<<<<;;;6;3ooo&<3*3<;66;=;;;;;;<<;<yyr<<6y<<<<<+++;;<<<<&;<<<y26",
"t22&;;&<<<<<<;;;&;<&o++<*3&<<;&<=;;<;;;<<;66yr<<yy<<<<<+oo;;<<<;&;<<6tt2",
"223<<<&;;<<<;;;+<&&;+&;<88w*3&;;;;;<;;;&;;;62<&+;6;;;;;;&&;;;;<<;&;<+<<<"
};
